<svg xmlns="http://www.w3.org/2000/svg" height="24" viewBox="0 0 24 24" width="24"><path style="line-height:normal;text-indent:0;text-align:start;text-decoration-line:none;text-decoration-style:solid;text-decoration-color:#000;text-transform:none;block-progression:tb;isolation:auto;mix-blend-mode:normal" d="M21.979 3.055a1 1 0 0 0 1 1v16.009a1 1 0 0 0-1 1H1.969a1 1 0 0 0-1-1V4.054a1 1 0 0 0 1-1h20.01zm-1 2H2.969v14.01h9.949a2.544 2.544 0 0 1-.047-.489v-5.13c0-1.317 1.022-2.489 2.363-2.489h5.38c.125 0 .245.02.365.04V5.054zm-.366 7.902h-5.379c-.17 0-.363.156-.363.488v5.131c0 .333.193.488.363.488h5.38c.17 0 .365-.155.365-.488v-5.13c0-.333-.195-.489-.366-.489z" color="#000" font-weight="400" font-family="sans-serif" white-space="normal" overflow="visible" fill-rule="evenodd"/></svg>