<svg xmlns="http://www.w3.org/2000/svg" height="24" viewBox="0 0 24 24" width="24"><path d="M8.716 1C4.442 1 1 1.296 1 1.66v20.68c0 .364 3.442.66 7.716.66h6.568c4.274 0 7.716-.296 7.716-.66V1.66c0-.364-3.442-.66-7.716-.66H8.716zm-5.62 3.03h3.753v2.206H3.096V4.029zm14.407 0h3.715v2.206h-3.715V4.029zM3.135 8.441h3.714v2.207H3.135V8.442zm14.368 0h3.715v2.207h-3.715V8.442zM3.135 12.855h3.714v2.207H3.135v-2.207zm14.368 0h3.715v2.207h-3.715v-2.207zM3.135 17.268h3.714v2.207H3.135v-2.207zm14.368 0h3.715v2.207h-3.715v-2.207z" fill="#3d3d3d"/></svg>