<?xml version="1.0" encoding="UTF-8" standalone="no"?>
<svg
   xmlns:dc="http://purl.org/dc/elements/1.1/"
   xmlns:cc="http://creativecommons.org/ns#"
   xmlns:rdf="http://www.w3.org/1999/02/22-rdf-syntax-ns#"
   xmlns:svg="http://www.w3.org/2000/svg"
   xmlns="http://www.w3.org/2000/svg"
   xmlns:sodipodi="http://sodipodi.sourceforge.net/DTD/sodipodi-0.dtd"
   xmlns:inkscape="http://www.inkscape.org/namespaces/inkscape"
   id="svg"
   version="1.1"
   width="24"
   height="24"
   viewBox="0 0 24 24"
   sodipodi:docname="classroom.svg"
   inkscape:version="0.92.2 5c3e80d, 2017-08-06">
  <metadata
     id="metadata13">
    <rdf:RDF>
      <cc:Work
         rdf:about="">
        <dc:format>image/svg+xml</dc:format>
        <dc:type
           rdf:resource="http://purl.org/dc/dcmitype/StillImage" />
        <dc:title></dc:title>
      </cc:Work>
    </rdf:RDF>
  </metadata>
  <defs
     id="defs11" />
  <sodipodi:namedview
     pagecolor="#ffffff"
     bordercolor="#666666"
     borderopacity="1"
     objecttolerance="10"
     gridtolerance="10"
     guidetolerance="10"
     inkscape:pageopacity="0"
     inkscape:pageshadow="2"
     inkscape:window-width="1304"
     inkscape:window-height="881"
     id="namedview9"
     showgrid="false"
     inkscape:zoom="13.350176"
     inkscape:cx="18.09768"
     inkscape:cy="7.4553877"
     inkscape:window-x="152"
     inkscape:window-y="173"
     inkscape:window-maximized="0"
     inkscape:current-layer="svg" />
  <g
     id="svgg"
     transform="matrix(0.0502623,0,0,0.0502623,1.9475399,1.9475399)">
    <path
       id="path0"
       d="m 196.6,125.582 c -1.32,0.154 -2.782,0.485 -3.249,0.736 -0.467,0.251 -1.727,0.648 -2.8,0.883 -1.073,0.235 -2.404,0.755 -2.959,1.157 -0.554,0.401 -1.453,0.871 -1.998,1.044 -2.048,0.65 -9.994,8.362 -9.994,9.701 0,0.212 -0.455,1.056 -1.012,1.876 -0.556,0.82 -1.208,2.42 -1.448,3.556 -0.241,1.136 -0.728,2.605 -1.083,3.265 -0.5,0.929 -0.646,2.376 -0.646,6.4 0,4.024 0.146,5.471 0.646,6.4 0.355,0.66 0.842,2.129 1.083,3.265 0.24,1.136 0.892,2.736 1.448,3.556 0.557,0.82 1.012,1.675 1.012,1.901 0,0.52 0.417,0.999 4.065,4.678 3.471,3.5 5.013,4.8 5.691,4.8 0.269,0 1.081,0.437 1.805,0.971 0.724,0.535 2.064,1.097 2.978,1.249 0.914,0.153 2.561,0.632 3.661,1.065 2.342,0.921 11.566,0.941 12.666,0.026 0.324,-0.268 1.566,-0.688 2.761,-0.932 1.195,-0.244 2.644,-0.776 3.219,-1.183 0.575,-0.407 1.721,-1.022 2.546,-1.367 1.638,-0.684 9.408,-8.251 9.408,-9.162 0,-0.305 0.455,-1.226 1.012,-2.046 0.556,-0.82 1.208,-2.42 1.448,-3.556 0.241,-1.136 0.726,-2.605 1.079,-3.265 0.952,-1.781 0.925,-10.555 -0.039,-12.909 -0.385,-0.94 -0.879,-2.504 -1.097,-3.477 -0.218,-0.973 -0.848,-2.434 -1.4,-3.247 -0.551,-0.813 -1.003,-1.652 -1.003,-1.864 0,-1.35 -7.97,-9.072 -10.002,-9.691 -0.549,-0.167 -1.358,-0.629 -1.798,-1.026 -0.44,-0.396 -1.52,-0.85 -2.4,-1.008 -0.88,-0.158 -2.41,-0.598 -3.4,-0.977 -2.154,-0.826 -6.885,-1.205 -10.2,-0.819 m -5.455,75.193 c -1.68,0.177 -3.251,0.443 -3.491,0.592 -0.241,0.149 -2.435,0.533 -4.876,0.853 -4.032,0.53 -6.246,1.076 -11.578,2.854 -0.99,0.33 -2.7,0.846 -3.8,1.148 -1.1,0.302 -2.72,0.904 -3.6,1.339 -3.344,1.653 -6.877,3.239 -7.232,3.246 -0.375,0.008 -3.511,1.987 -4.532,2.862 -0.311,0.265 -1.137,0.775 -1.836,1.131 -0.699,0.356 -1.525,0.867 -1.836,1.135 -0.31,0.267 -1.427,1.044 -2.482,1.725 -3.358,2.17 -8.224,7.853 -10.05,11.74 -2.356,5.014 -2.339,4.901 -2.547,16.493 -0.15,8.407 -0.08,11.031 0.309,11.5 0.767,0.924 132.045,0.924 132.812,0 0.389,-0.469 0.459,-3.093 0.309,-11.5 -0.208,-11.592 -0.191,-11.479 -2.547,-16.493 -1.826,-3.887 -6.692,-9.57 -10.05,-11.74 -1.055,-0.681 -2.172,-1.458 -2.482,-1.725 -0.311,-0.268 -1.137,-0.779 -1.836,-1.135 -0.699,-0.356 -1.525,-0.866 -1.836,-1.131 -1.021,-0.875 -4.157,-2.854 -4.532,-2.862 -0.355,-0.007 -3.888,-1.593 -7.232,-3.246 -0.88,-0.435 -2.5,-1.037 -3.6,-1.339 -1.1,-0.302 -2.81,-0.818 -3.8,-1.148 -5.301,-1.768 -7.535,-2.324 -11.47,-2.855 -2.382,-0.321 -4.96,-0.78 -5.73,-1.019 -1.77,-0.549 -16.395,-0.853 -20.455,-0.425 M 234.08,346.48 c -0.553,0.553 -0.692,18.567 -0.149,19.422 0.253,0.398 10.018,0.48 47.494,0.4 l 47.175,-0.102 0.107,-9.55 c 0.076,-6.709 -0.028,-9.714 -0.349,-10.1 -0.63,-0.76 -93.519,-0.829 -94.278,-0.07"
       inkscape:connector-curvature="0"
       style="fill:#f3f3f3;fill-rule:evenodd;stroke:none" />
    <path
       id="path1"
       d="m 33.785,34.1 c -0.104,0.275 -0.144,75.11 -0.087,166.3 l 0.102,165.8 99.358,0.101 c 72.343,0.073 99.504,-0.02 99.893,-0.343 0.414,-0.344 0.559,-2.63 0.642,-10.101 L 233.8,346.2 h 47.4 47.4 l 0.107,9.657 c 0.083,7.507 0.227,9.756 0.646,10.104 0.384,0.319 5.759,0.417 18.693,0.343 L 366.2,366.2 V 200 33.8 L 200.088,33.7 C 67.407,33.619 33.937,33.7 33.785,34.1 M 366,200 v 166 h -18 -18 v -9.626 c 0,-5.871 -0.162,-9.928 -0.414,-10.4 -0.406,-0.759 -1.367,-0.774 -48.41,-0.774 H 233.18 l -0.39,1.026 c -0.214,0.564 -0.39,5.244 -0.39,10.4 V 366 H 133.2 34 V 200 34 H 200 366 V 200 M 190.6,125.352 c -0.88,0.519 -2.27,1.065 -3.089,1.212 -0.818,0.147 -1.718,0.592 -2,0.987 -0.281,0.396 -1.025,0.847 -1.653,1.003 -0.644,0.159 -1.232,0.624 -1.347,1.064 -0.112,0.43 -0.515,0.782 -0.894,0.782 -0.38,0 -1.804,1.215 -3.166,2.7 -1.361,1.485 -2.83,3.079 -3.263,3.542 -0.434,0.463 -0.788,1.112 -0.788,1.442 0,0.329 -0.427,1.06 -0.949,1.623 -0.522,0.563 -1.075,1.694 -1.228,2.513 -0.154,0.819 -0.661,2.005 -1.127,2.635 -1.608,2.176 -1.512,16.918 0.122,18.672 0.42,0.451 0.884,1.571 1.031,2.488 0.147,0.918 0.691,2.126 1.209,2.685 0.518,0.559 0.942,1.262 0.942,1.561 0,0.299 0.45,0.936 1,1.414 0.55,0.478 1,1.079 1,1.336 0,0.66 4.619,4.989 5.324,4.989 0.32,0 0.672,0.341 0.781,0.758 0.117,0.448 0.707,0.869 1.446,1.031 0.687,0.151 1.249,0.436 1.249,0.633 0,0.504 2.19,1.578 3.218,1.578 0.472,0 1.426,0.405 2.12,0.9 1.211,0.864 1.596,0.9 9.528,0.9 7.946,0 8.314,-0.035 9.484,-0.9 0.67,-0.495 1.594,-0.9 2.054,-0.9 1.01,0 3.196,-1.079 3.196,-1.578 0,-0.197 0.562,-0.482 1.249,-0.633 0.712,-0.156 1.329,-0.585 1.437,-0.998 0.104,-0.398 0.591,-0.824 1.081,-0.947 1.202,-0.302 7.033,-6.643 7.033,-7.649 0,-0.263 0.424,-0.936 0.942,-1.495 0.518,-0.559 1.062,-1.767 1.209,-2.685 0.147,-0.917 0.611,-2.037 1.031,-2.488 1.634,-1.754 1.73,-16.496 0.122,-18.672 -0.466,-0.63 -0.973,-1.816 -1.127,-2.635 -0.153,-0.819 -0.706,-1.95 -1.228,-2.513 -0.522,-0.563 -0.949,-1.294 -0.949,-1.623 0,-0.33 -0.354,-0.979 -0.788,-1.442 -0.433,-0.463 -1.902,-2.057 -3.263,-3.542 -1.362,-1.485 -2.786,-2.7 -3.166,-2.7 -0.379,0 -0.782,-0.352 -0.894,-0.782 -0.115,-0.44 -0.703,-0.905 -1.347,-1.064 -0.628,-0.156 -1.372,-0.607 -1.653,-1.003 -0.282,-0.395 -1.182,-0.841 -2,-0.989 -0.819,-0.148 -2.225,-0.696 -3.124,-1.216 -2.512,-1.453 -16.3,-1.449 -18.765,0.006 m 15.013,0.47 c 1.203,0.342 3.087,0.856 4.187,1.142 1.1,0.286 2.7,0.996 3.556,1.578 0.856,0.582 1.806,1.058 2.111,1.058 0.948,0 8.449,7.75 9.333,9.642 0.451,0.967 1.071,2.208 1.377,2.758 3.494,6.273 3.492,18.157 -0.003,24.4 -0.308,0.55 -0.852,1.63 -1.21,2.4 -0.773,1.665 -0.89,1.807 -4.462,5.4 -3.728,3.749 -4.535,4.433 -5.643,4.783 -0.518,0.163 -1.578,0.729 -2.356,1.257 -0.778,0.528 -1.743,0.96 -2.144,0.96 -0.401,0 -1.681,0.393 -2.844,0.874 -2.834,1.172 -12.141,1.32 -14.173,0.226 -0.692,-0.372 -2.008,-0.797 -2.926,-0.944 -0.917,-0.146 -2.241,-0.648 -2.942,-1.115 -0.7,-0.467 -1.762,-1.065 -2.358,-1.329 -2.526,-1.119 -8.515,-7.232 -10.301,-10.512 -1.258,-2.313 -1.485,-2.864 -2.572,-6.248 -1.927,-6.004 -1.211,-15.14 1.58,-20.152 0.306,-0.55 0.909,-1.751 1.339,-2.668 0.711,-1.516 5.612,-6.835 8.015,-8.698 1.604,-1.244 5.287,-3.091 7.423,-3.721 1.1,-0.325 2.81,-0.831 3.8,-1.125 2.507,-0.744 8.541,-0.726 11.213,0.034 m -89.013,29.32 c -0.88,0.399 -2.098,0.849 -2.707,1.001 -5.566,1.387 -11.4,8.644 -13.552,16.857 -0.634,2.422 -0.185,8.846 0.77,11 0.439,0.99 1.066,2.43 1.393,3.2 1.565,3.68 6.595,8.708 10.296,10.292 0.77,0.33 2.21,0.958 3.2,1.397 9.2,4.077 25.604,-3.452 27.847,-12.782 0.147,-0.609 0.601,-1.775 1.01,-2.591 0.95,-1.898 1.081,-10.659 0.184,-12.377 -0.304,-0.584 -0.776,-1.754 -1.048,-2.6 -3.193,-9.934 -18.505,-17.422 -27.393,-13.397 m 154.539,-0.183 c -0.584,0.304 -1.754,0.776 -2.6,1.048 -4.938,1.587 -10.945,7.594 -12.532,12.532 -0.272,0.846 -0.744,2.016 -1.048,2.6 -0.876,1.678 -0.748,10.204 0.183,12.261 0.399,0.88 0.849,2.098 1.001,2.707 1.387,5.566 8.644,11.4 16.857,13.552 2.422,0.634 8.846,0.185 11,-0.77 0.99,-0.439 2.43,-1.067 3.2,-1.397 3.701,-1.584 8.731,-6.612 10.296,-10.292 0.327,-0.77 0.954,-2.21 1.393,-3.2 4.077,-9.2 -3.452,-25.604 -12.782,-27.847 -0.609,-0.147 -1.775,-0.601 -2.591,-1.01 -1.898,-0.95 -10.659,-1.081 -12.377,-0.184 m -84.963,44.582 c -1.112,0.147 -2.462,0.553 -3,0.903 -0.593,0.386 -2.387,0.744 -4.576,0.913 -2.699,0.208 -3.888,0.485 -4.751,1.11 -0.659,0.477 -2.125,0.947 -3.434,1.101 -1.422,0.168 -2.704,0.601 -3.403,1.151 -0.638,0.502 -1.685,0.881 -2.435,0.881 -0.795,0 -1.763,0.373 -2.446,0.942 -0.622,0.519 -1.781,1.062 -2.576,1.208 -0.795,0.146 -1.752,0.604 -2.126,1.018 -0.375,0.414 -1.294,0.868 -2.044,1.008 -0.749,0.141 -1.592,0.58 -1.874,0.975 -0.281,0.396 -1.011,0.844 -1.623,0.995 -0.611,0.151 -1.499,0.72 -1.972,1.265 -0.473,0.544 -1.091,0.989 -1.373,0.989 -0.281,0 -0.885,0.4 -1.341,0.89 -1.005,1.079 -2.966,1.123 -6.802,0.153 -9.599,-2.429 -9.444,-2.407 -17.6,-2.391 -6.535,0.014 -8.319,0.15 -11,0.84 -1.76,0.453 -4.096,0.95 -5.191,1.104 -1.094,0.154 -2.633,0.608 -3.418,1.009 -0.786,0.4 -2.14,0.859 -3.01,1.018 -2.454,0.45 -8.012,3.238 -12.863,6.452 -3.676,2.436 -9.148,7.979 -9.994,10.124 -0.304,0.77 -0.937,2.203 -1.407,3.182 -1.028,2.144 -1.651,19.474 -0.759,21.14 l 0.462,0.864 28.89,0.214 c 37.27,0.277 153.71,0.277 190.98,0 l 28.89,-0.214 0.462,-0.864 c 0.892,-1.666 0.269,-18.996 -0.759,-21.14 -0.47,-0.979 -1.103,-2.412 -1.407,-3.182 -0.846,-2.145 -6.318,-7.688 -9.994,-10.124 -4.851,-3.214 -10.409,-6.002 -12.863,-6.452 -0.87,-0.159 -2.224,-0.618 -3.01,-1.018 -0.785,-0.401 -2.324,-0.855 -3.418,-1.009 -1.095,-0.154 -3.431,-0.651 -5.191,-1.104 -2.681,-0.69 -4.465,-0.826 -11,-0.84 -8.156,-0.016 -8.001,-0.038 -17.6,2.391 -3.836,0.97 -5.797,0.926 -6.802,-0.153 -0.456,-0.49 -1.06,-0.89 -1.341,-0.89 -0.282,0 -0.9,-0.445 -1.373,-0.989 -0.473,-0.545 -1.361,-1.114 -1.972,-1.265 -0.612,-0.151 -1.342,-0.599 -1.623,-0.995 -0.282,-0.395 -1.125,-0.834 -1.874,-0.975 -0.75,-0.14 -1.669,-0.594 -2.044,-1.008 -0.374,-0.414 -1.331,-0.872 -2.126,-1.018 -0.795,-0.146 -1.954,-0.689 -2.576,-1.208 -0.683,-0.569 -1.651,-0.942 -2.446,-0.942 -0.75,0 -1.797,-0.379 -2.435,-0.881 -0.703,-0.553 -1.983,-0.983 -3.433,-1.154 -1.37,-0.162 -2.731,-0.603 -3.342,-1.084 -0.776,-0.609 -1.898,-0.875 -4.522,-1.07 -2.459,-0.182 -3.964,-0.518 -5.091,-1.133 -1.664,-0.91 -24.856,-1.472 -30.424,-0.737 m 19.503,0.862 c 3.454,0.221 6.73,0.572 7.28,0.781 0.55,0.21 2.585,0.58 4.521,0.823 3.29,0.413 7.922,1.576 12.12,3.041 0.99,0.346 2.79,0.899 4,1.231 1.21,0.331 2.47,0.832 2.8,1.114 0.33,0.282 1.05,0.642 1.6,0.801 0.55,0.159 1.752,0.72 2.671,1.248 0.919,0.527 1.922,0.958 2.228,0.958 0.503,0 5.846,3.283 8.27,5.081 0.534,0.395 1.391,0.909 1.906,1.141 3.563,1.608 10.089,9.097 11.831,13.578 0.428,1.1 1.021,2.63 1.319,3.4 0.973,2.523 0.8,23.851 -0.199,24.386 -1.079,0.578 -130.973,0.578 -132.052,0 -0.999,-0.535 -1.172,-21.863 -0.199,-24.386 0.298,-0.77 0.891,-2.3 1.319,-3.4 1.742,-4.481 8.268,-11.97 11.831,-13.578 0.515,-0.232 1.372,-0.746 1.906,-1.141 2.424,-1.798 7.767,-5.081 8.27,-5.081 0.306,0 1.309,-0.431 2.228,-0.958 0.919,-0.528 2.121,-1.089 2.671,-1.248 0.55,-0.159 1.27,-0.519 1.6,-0.801 0.33,-0.282 1.59,-0.783 2.8,-1.114 1.21,-0.332 3.01,-0.885 4,-1.231 3.958,-1.382 8.726,-2.622 11,-2.861 1.32,-0.139 3.549,-0.529 4.952,-0.867 1.404,-0.337 4.644,-0.745 7.2,-0.907 2.557,-0.161 4.918,-0.32 5.248,-0.352 0.33,-0.032 3.426,0.122 6.879,0.342"
       inkscape:connector-curvature="0"
       style="fill:#52bb8a;fill-rule:evenodd;stroke:none" />
    <path
       id="path2"
       d="M 0,200 V 400 H 200 400 V 200 0 H 200 0 V 200 M 366.571,33.429 c 0.964,0.964 0.964,332.178 0,333.142 -0.964,0.964 -332.178,0.964 -333.142,0 -0.964,-0.964 -0.964,-332.178 0,-333.142 0.964,-0.964 332.178,-0.964 333.142,0"
       inkscape:connector-curvature="0"
       style="fill:#fcc414;fill-rule:evenodd;stroke:none" />
    <path
       id="path3"
       d="m 34,200 v 166 h 99.2 99.2 v -9.374 c 0,-5.156 0.176,-9.836 0.39,-10.4 l 0.39,-1.026 h 47.996 c 47.043,0 48.004,0.015 48.41,0.774 0.252,0.472 0.414,4.529 0.414,10.4 V 366 h 18 18 V 200 34 H 200 34 v 166 m 175.365,-74.654 c 0.899,0.52 2.305,1.068 3.124,1.216 0.818,0.148 1.718,0.594 2,0.989 0.281,0.396 1.025,0.847 1.653,1.003 0.644,0.159 1.232,0.624 1.347,1.064 0.112,0.43 0.515,0.782 0.894,0.782 0.38,0 1.804,1.215 3.166,2.7 1.361,1.485 2.83,3.079 3.263,3.542 0.434,0.463 0.788,1.112 0.788,1.442 0,0.329 0.427,1.06 0.949,1.623 0.522,0.563 1.075,1.694 1.228,2.513 0.154,0.819 0.661,2.005 1.127,2.635 1.608,2.176 1.512,16.918 -0.122,18.672 -0.42,0.451 -0.884,1.571 -1.031,2.488 -0.147,0.918 -0.691,2.126 -1.209,2.685 -0.518,0.559 -0.942,1.232 -0.942,1.495 0,1.006 -5.831,7.347 -7.033,7.649 -0.49,0.123 -0.977,0.549 -1.081,0.947 -0.108,0.413 -0.725,0.842 -1.437,0.998 -0.687,0.151 -1.249,0.436 -1.249,0.633 0,0.499 -2.186,1.578 -3.196,1.578 -0.46,0 -1.384,0.405 -2.054,0.9 -1.17,0.865 -1.538,0.9 -9.484,0.9 -7.932,0 -8.317,-0.036 -9.528,-0.9 -0.694,-0.495 -1.648,-0.9 -2.12,-0.9 -1.028,0 -3.218,-1.074 -3.218,-1.578 0,-0.197 -0.562,-0.482 -1.249,-0.633 -0.739,-0.162 -1.329,-0.583 -1.446,-1.031 -0.109,-0.417 -0.461,-0.758 -0.781,-0.758 -0.705,0 -5.324,-4.329 -5.324,-4.989 0,-0.257 -0.45,-0.858 -1,-1.336 -0.55,-0.478 -1,-1.115 -1,-1.414 0,-0.299 -0.424,-1.002 -0.942,-1.561 -0.518,-0.559 -1.062,-1.767 -1.209,-2.685 -0.147,-0.917 -0.611,-2.037 -1.031,-2.488 -1.634,-1.754 -1.73,-16.496 -0.122,-18.672 0.466,-0.63 0.973,-1.816 1.127,-2.635 0.153,-0.819 0.706,-1.95 1.228,-2.513 0.522,-0.563 0.949,-1.294 0.949,-1.623 0,-0.33 0.354,-0.979 0.788,-1.442 0.433,-0.463 1.902,-2.057 3.263,-3.542 1.362,-1.485 2.786,-2.7 3.166,-2.7 0.379,0 0.782,-0.352 0.894,-0.782 0.115,-0.44 0.703,-0.905 1.347,-1.064 0.628,-0.156 1.372,-0.607 1.653,-1.003 0.282,-0.395 1.182,-0.84 2,-0.987 0.819,-0.147 2.209,-0.693 3.089,-1.212 2.465,-1.455 16.253,-1.459 18.765,-0.006 m -78.814,30.26 c 6.547,2.622 11.731,7.608 13.442,12.933 0.272,0.846 0.744,2.016 1.048,2.6 0.897,1.718 0.766,10.479 -0.184,12.377 -0.409,0.816 -0.863,1.982 -1.01,2.591 -1.328,5.524 -8.632,11.399 -16.847,13.552 -2.422,0.634 -8.846,0.185 -11,-0.77 -0.99,-0.439 -2.43,-1.067 -3.2,-1.397 -3.701,-1.584 -8.731,-6.612 -10.296,-10.292 -0.327,-0.77 -0.954,-2.21 -1.393,-3.2 -4.079,-9.203 3.409,-25.521 12.782,-27.857 0.609,-0.152 1.827,-0.602 2.707,-1.001 2.854,-1.292 10.172,-1.049 13.951,0.464 m 152.965,-0.463 c 0.816,0.409 1.982,0.863 2.591,1.01 5.524,1.328 11.399,8.632 13.552,16.847 0.634,2.422 0.185,8.846 -0.77,11 -0.439,0.99 -1.066,2.43 -1.393,3.2 -1.565,3.68 -6.595,8.708 -10.296,10.292 -0.77,0.33 -2.21,0.958 -3.2,1.397 -9.203,4.079 -25.521,-3.409 -27.857,-12.782 -0.152,-0.609 -0.602,-1.827 -1.001,-2.707 -0.931,-2.057 -1.059,-10.583 -0.183,-12.261 0.304,-0.584 0.776,-1.754 1.048,-2.6 0.792,-2.466 2.416,-4.886 5.031,-7.501 2.615,-2.615 5.035,-4.239 7.501,-5.031 0.846,-0.272 2.016,-0.744 2.6,-1.048 1.718,-0.897 10.479,-0.766 12.377,0.184 M 216.6,200.278 c 1.127,0.615 2.632,0.951 5.091,1.133 2.624,0.195 3.746,0.461 4.522,1.07 0.611,0.481 1.972,0.922 3.342,1.084 1.45,0.171 2.73,0.601 3.433,1.154 0.638,0.502 1.685,0.881 2.435,0.881 0.795,0 1.763,0.373 2.446,0.942 0.622,0.519 1.781,1.062 2.576,1.208 0.795,0.146 1.752,0.604 2.126,1.018 0.375,0.414 1.294,0.868 2.044,1.008 0.749,0.141 1.592,0.58 1.874,0.975 0.281,0.396 1.011,0.844 1.623,0.995 0.611,0.151 1.499,0.72 1.972,1.265 0.473,0.544 1.091,0.989 1.373,0.989 0.281,0 0.885,0.4 1.341,0.89 1.005,1.079 2.966,1.123 6.802,0.153 9.599,-2.429 9.444,-2.407 17.6,-2.391 6.535,0.014 8.319,0.15 11,0.84 1.76,0.453 4.096,0.95 5.191,1.104 1.094,0.154 2.633,0.608 3.418,1.009 0.786,0.4 2.14,0.859 3.01,1.018 2.454,0.45 8.012,3.238 12.863,6.452 3.676,2.436 9.148,7.979 9.994,10.124 0.304,0.77 0.937,2.203 1.407,3.182 1.028,2.144 1.651,19.474 0.759,21.14 l -0.462,0.864 -28.89,0.214 c -37.27,0.277 -153.71,0.277 -190.98,0 l -28.89,-0.214 -0.462,-0.864 c -0.892,-1.666 -0.269,-18.996 0.759,-21.14 0.47,-0.979 1.103,-2.412 1.407,-3.182 0.846,-2.145 6.318,-7.688 9.994,-10.124 4.851,-3.214 10.409,-6.002 12.863,-6.452 0.87,-0.159 2.224,-0.618 3.01,-1.018 0.785,-0.401 2.324,-0.855 3.418,-1.009 1.095,-0.154 3.431,-0.651 5.191,-1.104 2.681,-0.69 4.465,-0.826 11,-0.84 8.156,-0.016 8.001,-0.038 17.6,2.391 3.836,0.97 5.797,0.926 6.802,-0.153 0.456,-0.49 1.06,-0.89 1.341,-0.89 0.282,0 0.9,-0.445 1.373,-0.989 0.473,-0.545 1.361,-1.114 1.972,-1.265 0.612,-0.151 1.342,-0.599 1.623,-0.995 0.282,-0.395 1.125,-0.834 1.874,-0.975 0.75,-0.14 1.669,-0.594 2.044,-1.008 0.374,-0.414 1.331,-0.872 2.126,-1.018 0.795,-0.146 1.954,-0.689 2.576,-1.208 0.683,-0.569 1.651,-0.942 2.446,-0.942 0.75,0 1.797,-0.379 2.435,-0.881 0.699,-0.55 1.981,-0.983 3.403,-1.151 1.309,-0.154 2.775,-0.624 3.434,-1.101 0.863,-0.625 2.052,-0.902 4.751,-1.11 2.189,-0.169 3.983,-0.527 4.576,-0.913 2.415,-1.572 30.596,-1.713 33.424,-0.166"
       inkscape:connector-curvature="0"
       style="fill:#24a464;fill-rule:evenodd;stroke:none" />
    <path
       id="path4"
       d="m 33.429,33.429 c -0.964,0.964 -0.964,332.178 0,333.142 0.964,0.964 332.178,0.964 333.142,0 0.964,-0.964 0.964,-332.178 0,-333.142 -0.964,-0.964 -332.178,-0.964 -333.142,0 M 366.2,200 v 166.2 l -18.154,0.104 c -12.335,0.071 -18.318,-0.032 -18.664,-0.319 -0.356,-0.295 -0.59,-0.296 -0.77,-0.004 -0.409,0.661 -94.491,0.581 -94.714,-0.081 -0.134,-0.4 -0.29,-0.4 -0.775,0.001 -0.483,0.398 -20.865,0.48 -99.965,0.4 L 33.8,366.2 33.698,200.4 C 33.641,109.21 33.681,34.375 33.785,34.1 33.937,33.7 67.407,33.619 200.088,33.7 L 366.2,33.8 V 200 M 196.705,125.483 c 0.497,0.096 1.217,0.092 1.6,-0.008 0.382,-0.1 -0.025,-0.179 -0.905,-0.174 -0.88,0.004 -1.193,0.086 -0.695,0.182 m 5.2,0 c 0.497,0.096 1.217,0.092 1.6,-0.008 0.382,-0.1 -0.025,-0.179 -0.905,-0.174 -0.88,0.004 -1.193,0.086 -0.695,0.182 m 13.695,4.231 c 0,0.104 1.028,1.066 2.284,2.137 1.256,1.072 2.155,1.74 1.999,1.485 -0.344,-0.559 -4.283,-3.89 -4.283,-3.622 m -43.285,16.496 c -0.123,0.435 -0.346,1.15 -0.495,1.59 -0.149,0.44 0.022,0.294 0.38,-0.324 0.358,-0.618 0.581,-1.334 0.495,-1.59 -0.085,-0.256 -0.256,-0.11 -0.38,0.324 m -0.701,13.844 c -0.008,0.14 0.249,0.86 0.57,1.6 0.322,0.74 0.585,1.076 0.586,0.746 0.002,-0.576 -1.127,-2.866 -1.156,-2.346 m 56.051,0.963 c -0.256,0.561 -0.458,1.237 -0.449,1.502 0.008,0.264 0.281,-0.131 0.606,-0.88 0.683,-1.574 0.539,-2.149 -0.157,-0.622 M 180.2,175.2 c 0.859,0.88 1.652,1.6 1.762,1.6 0.11,0 -0.503,-0.72 -1.362,-1.6 -0.859,-0.88 -1.652,-1.6 -1.762,-1.6 -0.11,0 0.503,0.72 1.362,1.6 m 27.042,6.434 c -0.527,0.211 -0.869,0.472 -0.761,0.581 0.109,0.108 0.81,-0.068 1.558,-0.393 1.482,-0.643 0.764,-0.812 -0.797,-0.188 M 193.2,182.2 c 0.55,0.314 1.27,0.571 1.6,0.57 0.33,-0.001 -0.006,-0.264 -0.746,-0.586 -1.703,-0.739 -2.16,-0.731 -0.854,0.016 m 5.1,0.893 c 0.935,0.084 2.465,0.084 3.4,0 0.935,-0.084 0.17,-0.153 -1.7,-0.153 -1.87,0 -2.635,0.069 -1.7,0.153 m 0.6,17.194 c 0.605,0.091 1.595,0.091 2.2,0 0.605,-0.092 0.11,-0.167 -1.1,-0.167 -1.21,0 -1.705,0.075 -1.1,0.167 m -7.4,0.395 c 0.495,0.096 1.305,0.096 1.8,0 0.495,-0.095 0.09,-0.173 -0.9,-0.173 -0.99,0 -1.395,0.078 -0.9,0.173 m 15.2,0 c 0.495,0.096 1.305,0.096 1.8,0 0.495,-0.095 0.09,-0.173 -0.9,-0.173 -0.99,0 -1.395,0.078 -0.9,0.173 M 187,201.2 c -1.019,0.438 0.032,0.438 1.4,0 0.804,-0.257 0.843,-0.323 0.2,-0.332 -0.44,-0.006 -1.16,0.143 -1.6,0.332 m 24.6,0 c 1.368,0.438 2.419,0.438 1.4,0 -0.44,-0.189 -1.16,-0.338 -1.6,-0.332 -0.643,0.009 -0.604,0.075 0.2,0.332 m -42.4,4.2 c -0.55,0.314 -0.82,0.572 -0.6,0.572 0.22,0 0.85,-0.258 1.4,-0.572 0.55,-0.314 0.82,-0.572 0.6,-0.572 -0.22,0 -0.85,0.258 -1.4,0.572 m 60.8,0 c 0.55,0.314 1.18,0.572 1.4,0.572 0.22,0 -0.05,-0.258 -0.6,-0.572 -0.55,-0.314 -1.18,-0.572 -1.4,-0.572 -0.22,0 0.05,0.258 0.6,0.572 m -84.8,12.245 c -2.038,1.668 -4.378,4.019 -6.026,6.058 -1.018,1.259 -0.533,0.851 1.217,-1.024 1.602,-1.717 3.725,-3.742 4.718,-4.5 0.993,-0.758 1.645,-1.373 1.449,-1.366 -0.197,0.008 -0.808,0.382 -1.358,0.832 m 109.691,0.534 c 0.993,0.758 3.116,2.783 4.718,4.5 1.75,1.875 2.235,2.283 1.217,1.024 -2.402,-2.971 -6.644,-6.903 -7.447,-6.903 -0.162,0 0.519,0.621 1.512,1.379 m -118.378,9.145 c -0.478,0.702 -0.992,1.636 -1.142,2.076 -0.15,0.44 0.299,-0.076 0.999,-1.146 1.403,-2.149 1.529,-2.964 0.143,-0.93 M 262.4,226.132 c 0,0.132 0.54,1.092 1.2,2.132 1.182,1.864 1.638,2.116 0.74,0.41 -0.561,-1.067 -1.94,-2.873 -1.94,-2.542 m -128.128,6.087 c -0.37,0.774 -0.668,1.627 -0.663,1.895 0.005,0.267 0.368,-0.306 0.807,-1.274 0.951,-2.096 0.823,-2.649 -0.144,-0.621 m 130.545,-1.363 c -0.009,0.141 0.339,1.041 0.774,2 0.435,0.959 0.788,1.474 0.783,1.144 -0.007,-0.587 -1.524,-3.649 -1.557,-3.144 M 133.324,237 c 0.002,1.32 0.077,1.812 0.166,1.093 0.089,-0.719 0.087,-1.799 -0.004,-2.4 -0.091,-0.601 -0.164,-0.013 -0.162,1.307 m 133.2,0 c 0.002,1.32 0.077,1.812 0.166,1.093 0.089,-0.719 0.087,-1.799 -0.004,-2.4 -0.091,-0.601 -0.164,-0.013 -0.162,1.307 M 167.1,258.3 c 18.095,0.058 47.705,0.058 65.8,0 18.095,-0.058 3.29,-0.105 -32.9,-0.105 -36.19,0 -50.995,0.047 -32.9,0.105"
       inkscape:connector-curvature="0"
       style="fill:#c8cc64;fill-rule:evenodd;stroke:none" />
  </g>
</svg>
