<?xml version="1.0" encoding="utf-8"?>
<!-- Generator: Adobe Illustrator 16.0.0, SVG Export Plug-In . SVG Version: 6.00 Build 0)  -->
<!DOCTYPE svg PUBLIC "-//W3C//DTD SVG 1.1//EN" "http://www.w3.org/Graphics/SVG/1.1/DTD/svg11.dtd">
<svg version="1.1" xmlns="http://www.w3.org/2000/svg" xmlns:xlink="http://www.w3.org/1999/xlink" x="0px" y="0px" width="200px"
	 height="165px" viewBox="0 0 200 165" enable-background="new 0 0 200 165" xml:space="preserve">
<g id="椭圆_2_1_" enable-background="new    ">
	<g id="椭圆_2">
		<g>
			<ellipse fill-rule="evenodd" clip-rule="evenodd" cx="45.673" cy="45.625" rx="45.735" ry="45.675"/>
		</g>
	</g>
</g>
<g id="椭圆_2_副本_1_" enable-background="new    ">
	<g id="椭圆_2_副本">
		<g>
			<ellipse fill-rule="evenodd" clip-rule="evenodd" fill="#F8BC3B" cx="45.794" cy="45.503" rx="41.442" ry="41.388"/>
		</g>
	</g>
</g>
<g id="Cloud_1_" enable-background="new    ">
	<g id="Cloud">
		<g>
			<path fill-rule="evenodd" clip-rule="evenodd" d="M168.009,80.945c0.01-0.397,0.03-0.792,0.03-1.191
				c0-27.694-22.458-50.146-50.161-50.146c-19.159,0-35.803,10.741-44.251,26.525c-2.632-0.937-5.464-1.452-8.418-1.452
				c-13.851,0-25.08,11.225-25.08,25.072c0,0.026,0.002,0.053,0.002,0.079C17.751,81.131,0,99.679,0,122.377
				C0,145.917,19.089,165,42.637,165h115.37c23.548,0,42.637-19.083,42.637-42.623C200.644,102.282,186.729,85.445,168.009,80.945z"
				/>
		</g>
	</g>
</g>
<g id="Cloud_副本_1_" enable-background="new    ">
	<g id="Cloud_副本">
		<g>
			<path fill-rule="evenodd" clip-rule="evenodd" fill="#FFFFFF" d="M163.836,81.953c0.009-0.373,0.028-0.743,0.028-1.118
				c0-25.986-21.073-47.053-47.067-47.053c-17.978,0-33.595,10.079-41.522,24.889c-2.47-0.879-5.127-1.362-7.899-1.362
				c-12.998,0-23.534,10.533-23.534,23.526c0,0.025,0.002,0.049,0.002,0.074c-21,1.218-37.656,18.622-37.656,39.921
				c0,22.089,17.912,39.995,40.008,39.995h108.256c22.096,0,40.008-17.906,40.008-39.995
				C194.459,101.974,181.402,86.176,163.836,81.953z"/>
		</g>
	</g>
</g>
</svg>
