<?xml version="1.0" encoding="utf-8"?>
<!-- Generator: Adobe Illustrator 16.0.0, SVG Export Plug-In . SVG Version: 6.00 Build 0)  -->
<!DOCTYPE svg PUBLIC "-//W3C//DTD SVG 1.1//EN" "http://www.w3.org/Graphics/SVG/1.1/DTD/svg11.dtd">
<svg version="1.1" xmlns="http://www.w3.org/2000/svg" xmlns:xlink="http://www.w3.org/1999/xlink" x="0px" y="0px" width="200px"
	 height="200px" viewBox="0 0 200 200" enable-background="new 0 0 200 200" xml:space="preserve">
<g id="形状_1_1_" enable-background="new    ">
	<g id="形状_1">
		<g>
			<circle fill-rule="evenodd" clip-rule="evenodd" fill="#EAA617" cx="100" cy="100" r="100"/>
		</g>
	</g>
</g>
<g id="形状_1_副本_1_" enable-background="new    ">
	<g id="形状_1_副本">
		<g>
			<circle fill-rule="evenodd" clip-rule="evenodd" fill="#FFC54A" cx="100" cy="100" r="92.113"/>
		</g>
	</g>
</g>
<g id="颜色填充_1_1_" enable-background="new    ">
	<g id="颜色填充_1">
		<g>
			<path fill-rule="evenodd" clip-rule="evenodd" fill="#9F700E" d="M163.393,140.533c-10.979-23.584-37.379-34.596-63.393-34.596
				c-20.868,0-51.859,9.714-61.833,34.833c-2.541,6.4,5.914,11.562,9.833,5.167c4.75-7.75,17.375-28,52-28
				c33.375,0,47.856,20.334,52.25,28C156.074,152.609,166.664,147.559,163.393,140.533z"/>
		</g>
	</g>
</g>
<g id="形状_3_1_" enable-background="new    ">
	<g id="形状_3">
		<g>
			<path fill-rule="evenodd" clip-rule="evenodd" fill="#9F700E" d="M73.356,68.23L54.18,55.596
				c-1.845-1.215-4.326-0.705-5.541,1.14s-0.705,4.326,1.14,5.541l14.854,9.786l-14.854,9.786c-1.845,1.215-2.355,3.696-1.14,5.541
				s3.696,2.354,5.541,1.14l19.177-12.634c0.792-0.281,1.507-0.799,2.005-1.555c0.462-0.702,0.672-1.496,0.656-2.277
				c0.016-0.781-0.194-1.575-0.656-2.277C74.863,69.029,74.148,68.511,73.356,68.23z M150.221,81.849l-14.854-9.786l14.854-9.786
				c1.846-1.215,2.355-3.696,1.141-5.541s-3.696-2.354-5.541-1.14L126.643,68.23c-0.792,0.281-1.506,0.798-2.004,1.555
				c-0.462,0.702-0.672,1.496-0.656,2.277c-0.016,0.781,0.194,1.575,0.656,2.277c0.498,0.756,1.212,1.274,2.004,1.555l19.178,12.635
				c1.845,1.215,4.326,0.705,5.541-1.14S152.066,83.063,150.221,81.849z"/>
		</g>
	</g>
</g>
</svg>
