<?xml version="1.0" encoding="utf-8"?>
<!-- Generator: Adobe Illustrator 16.0.0, SVG Export Plug-In . SVG Version: 6.00 Build 0)  -->
<!DOCTYPE svg PUBLIC "-//W3C//DTD SVG 1.1//EN" "http://www.w3.org/Graphics/SVG/1.1/DTD/svg11.dtd">
<svg version="1.1" xmlns="http://www.w3.org/2000/svg" xmlns:xlink="http://www.w3.org/1999/xlink" x="0px" y="0px" width="200px"
	 height="142px" viewBox="0 0 200 142" enable-background="new 0 0 200 142" xml:space="preserve">
<g id="颜色填充_1_1_" enable-background="new    ">
	<g id="颜色填充_1">
		<g>
			<path fill-rule="evenodd" clip-rule="evenodd" fill="#F4A344" d="M196.135,44.734l-10.85-10.466l-12.078-3.488l-6.346,1.847
				l-10.031,6.361l-2.661,7.593l-1.843-25.24l-6.141-10.055l-9.008-2.668l-9.416,4.515l-3.07,6.771l-16.582-4.72l-22.518-3.283
				l-22.518-0.205H45.06l-1.638-4.72l-8.803-3.283l-8.393,6.978l-5.322,10.26l-5.937,14.364l-6.551,8.208l-4.913,9.439l-0.205,6.156
				l3.48,4.925l5.527,2.872l9.212,0.206l-3.89,43.503l1.229,14.569l-5.732,2.462l-1.024,2.873l3.48,2.462l4.094,0.821l2.457,2.668
				l3.275-0.411l1.842-1.847l4.504,1.026l2.661-1.847l0.819-2.258l4.913-1.025l1.842-3.078l-1.023-4.31l2.047-1.231l10.031,2.463
				l14.125,2.667l14.534,1.026l11.259-1.026l7.779-0.41l-4.504,10.055l2.047,2.053l4.913-0.616l2.252,3.078l5.322-0.41l3.89-2.052
				l6.346-0.616l2.047-2.257l-0.409-5.746v-7.592l3.48-1.231l7.369-3.078l1.024-14.159l12.896-18.263c0,0,8.802-5.951,12.077-8.618
				c3.275-2.668,11.669-3.489,11.669-3.489l10.85,3.283l4.707-0.205l5.527-2.872l3.48-6.567l2.457-9.85L196.135,44.734z"/>
		</g>
	</g>
</g>
<g id="形状_6_1_" enable-background="new    ">
	<g id="形状_6">
		<g>
			<ellipse fill-rule="evenodd" clip-rule="evenodd" fill="#EB5E3B" cx="59.901" cy="51.506" rx="4.606" ry="6.566"/>
		</g>
	</g>
</g>
<g id="形状_7_1_" enable-background="new    ">
	<g id="形状_7">
		<g>
			<ellipse fill-rule="evenodd" clip-rule="evenodd" fill="#1F1E20" cx="87.027" cy="30.885" rx="5.937" ry="9.129"/>
		</g>
	</g>
</g>
<g id="形状_8_1_" enable-background="new    ">
	<g id="形状_8">
		<g>
			<ellipse fill-rule="evenodd" clip-rule="evenodd" fill="#1F1E20" cx="44.036" cy="27.189" rx="4.708" ry="8.311"/>
		</g>
	</g>
</g>
<g id="形状_9_1_" enable-background="new    ">
	<g id="形状_9">
		<g>
			<ellipse fill-rule="evenodd" clip-rule="evenodd" fill="#D8C7B4" cx="87.527" cy="26.391" rx="2.661" ry="2.463"/>
		</g>
	</g>
</g>
<g id="形状_10_1_" enable-background="new    ">
	<g id="形状_10">
		<g>
			<ellipse fill-rule="evenodd" clip-rule="evenodd" fill="#D8C7B4" cx="43.692" cy="23.598" rx="2.559" ry="2.873"/>
		</g>
	</g>
</g>
<g id="形状_5_1_" enable-background="new    ">
	<g id="形状_5">
		<g>
			<path fill-rule="evenodd" clip-rule="evenodd" fill="#583217" d="M87.19,40.763c9.956,0.258,10.935-19.563,1.627-21.649
				c-1.167-0.261-1.95,0.446-2.211,1.332c-0.234-0.015-0.481,0.002-0.744,0.081C76.798,23.236,76.678,40.491,87.19,40.763z
				 M87.193,24.289c0.681-0.203,1.062-0.641,1.218-1.148c4.655,1.646,3.561,13.278-1.507,13.642
				C81.054,37.201,82.721,25.626,87.193,24.289z M118.898,63.751c-15.115,4.748-31.653,3.569-47.088,1.172
				c-7.21-1.12-14.329-2.763-21.537-3.886c-6.931-1.08-13.796-2.131-19.859-5.905c-2.186-1.36-3.916,2.237-1.757,3.58
				c5.967,3.716,12.75,4.985,19.596,6.048c8.121,1.26,16.147,3.047,24.27,4.309c15.643,2.43,32.433,3.243,47.706-1.555
				C122.678,66.744,121.346,62.982,118.898,63.751z M186.436,31.799c-6.511-3.766-14.393-3.473-21.13-0.59
				c-4.045,1.731-8.123,4.426-10.564,8.094c-0.006-0.632-0.016-1.264,0.001-1.897c0.238-9.269,1.102-21.229-7.043-27.624
				c-8.577-6.737-20.41-0.349-26.063,7.187c-23.662-9.952-50.3-7.569-75.511-6.735c-0.238-6.621-6.81-9.877-13.518-8.039
				c-4.13,1.132-6.723,4.854-8.872,8.286c-3.376,5.39-5.36,11.624-7.837,17.448C13.625,33.272,10.487,37.555,7,42.131
				c-3.145,4.127-5.653,8.498-5.923,13.776c-0.481,9.43,9.946,14.193,18.181,14.127c-1.208,10.918-3.874,21.585-5.331,32.466
				c-0.466,3.474-2.404,15.81,2.743,17.488c0.218,1.124,0.412,2.25,0.615,3.375c-3.805,0.492-7.144,2.653-6.708,7.235
				c0.387,4.062,3.829,5.704,7.136,4.958c1.74,3.584,6.358,4.185,9.347,1.607c3.481,3.051,8.899,0.889,9.741-3.894
				c2.979,0.084,6.112-1.221,7.539-3.957c1.102-2.113,0.766-3.899-0.399-5.16c17.296,4.323,35.922,6.627,53.553,3.636
				c-2.113,3.359-4.248,7.101-3.051,10.503c1.51,4.292,5.203,3.856,8.166,1.922c0.409,0.673,0.913,1.27,1.474,1.785h13.667
				c0.677-0.383,1.301-0.902,1.815-1.599c5.428,1.979,8.834-5.318,4.766-10.112c-0.16-0.188-0.339-0.327-0.523-0.44
				c0.097-1.649,0.167-3.301,0.225-4.953c2.028-0.296,3.479-1.643,4.562-3.35c7.493,1.384,7.664-7.688,7.896-13.018
				c0.43-9.83,8.752-19.017,15.928-25.02c3.545-2.965,7.521-5.362,11.89-6.871c5.182-1.791,9.443-0.518,14.334,1.351
				c7.109,2.714,13.846-0.901,17.641-7.216c2.017-3.355,3.235-7.012,3.719-10.728v-7.398
				C198.923,44.199,194.18,36.279,186.436,31.799z M19.218,66.045c-7.054,0.095-15.111-3.779-14.016-11.92
				c1.029-7.646,8.83-13.53,12.289-20.168c4.096-7.86,6.11-16.802,11.39-24.035c2.08-2.849,4.887-4.61,8.502-4.323
				c3.249,0.259,4.824,2.382,4.76,5.186c-0.138,0.128-0.24,0.282-0.328,0.444c-3.209,0.616-5.684,3.525-7.445,6.12
				c-3.374,4.974-5.529,10.746-7.457,16.403C23.4,44.068,20.321,55.142,19.218,66.045z M130.506,117.344
				c0.194-0.57,0.372-1.127,0.532-1.648c0.633-2.059,1.114-4.17,1.511-6.304C132.558,112.124,132.567,116.33,130.506,117.344z
				 M128.793,32.962c0.345,11.485,2.002,22.869,2.623,34.337c0.057,1.043,0.089,2.084,0.108,3.124
				c-0.727,0.586-1.085,1.599-0.382,2.585c0.125,0.175,0.263,0.324,0.392,0.49c-0.059,5.446-0.494,10.871-0.869,16.318
				c-0.44,6.365-1.009,12.733-2.126,19.02c-0.421,2.369-1.414,10.257-4.401,11.847c0.233-15.561-1.245-31.176-4.423-46.392
				c-0.524-2.509-4.271-1.149-3.752,1.335c3.698,17.709,5.025,36.205,3.895,54.263c-0.049,0.771,0.282,1.38,0.766,1.784
				c0.051,0.288,0.178,0.582,0.424,0.872c1.121,1.321,1.979,5.927-0.994,3.648c-0.923-0.707-2.626-0.654-3.09,0.628
				c-0.719,1.989-2.287,2.773-3.69,0.666c-0.915-1.377-3.362-1.004-3.593,0.736c-0.496,3.729-3.793,1.213-4.147-1.169
				c-0.192-1.291-1.32-1.849-2.33-1.751c-0.531-0.037-1.087,0.133-1.558,0.617c-1.765,1.818-4.173,1.915-2.95-1.364
				c0.403-1.081,0.856-2.105,1.371-3.136c0.811-1.623,1.808-3.146,2.729-4.711c0.883-0.327,1.174-1.108,1.03-1.879
				c2.213-4.392,2.678-9.744,2.883-14.576c0.523-12.276-1.69-24.415-4.578-36.296c-0.605-2.496-4.354-1.146-3.751,1.334
				c1.933,7.959,3.464,15.982,4.164,24.149c0.656,7.658,0.916,16.68-2.369,23.803c0,0.001-0.001,0.003-0.002,0.005
				c-19.356,4.213-40.36,1.096-59.267-4.001c-1.516-11.788-2.584-24.004,0.865-35.473c0.743-2.469-3.171-3.221-3.904-0.783
				c-4.02,13.364-2.116,27.787-0.296,41.359c0.114,0.85,0.686,1.684,1.596,1.814c1.784,0.258,2.356,0.859,0.84,2.154
				c-1.388,1.188-3.119,1.169-4.766,0.672c-1.199-0.362-2.545,0.891-2.375,2.1c0.361,2.568-2.327,5.66-3.908,2.15
				c-0.676-1.502-2.874-1.882-3.662-0.213c-1.038,2.195-4.04,2.771-4.284-0.282c-0.123-1.536-1.844-2.321-3.111-1.502
				c-1.364,0.881-2.966,1.007-3.35-0.933c-0.55-2.778,2.736-3.253,4.734-3.112c1.594,0.111,2.636-1.04,2.266-2.625
				c-0.175-0.75-0.322-1.506-0.462-2.264c0.204-0.316,0.317-0.715,0.286-1.192c-0.731-11.171-0.08-22.375-0.811-33.547
				c-0.002-0.028-0.01-0.052-0.013-0.08c1.208-6.495,2.363-12.995,2.919-19.6c0.043-0.517-0.083-0.962-0.316-1.321
				c0.998-9.501,3.599-19.041,6.394-28.123c1.681-5.46,3.677-10.869,6.347-15.928c1.486-2.815,4.047-7.631,7.805-7.427
				c0.806,0.043,1.325-0.322,1.582-0.847c26.685-0.839,55.2-3.856,79.795,8.708c2.294,1.172,4.041-2.415,1.758-3.581
				c-0.507-0.259-1.018-0.501-1.528-0.748c5.141-6.484,16.015-11.293,22.12-3.539c4.65,5.908,3.553,15.59,3.35,22.604
				c-0.271,9.427,2.455,19.091,0.574,28.439c-1.514,7.518-10.494,11.162-15.797,5.937c-0.077-13.168-2.391-26.233-2.785-39.393
				C132.688,30.101,128.717,30.397,128.793,32.962z M196.231,57.289c-0.152,6.997-4.175,16.9-12.11,17.817
				c-2.977,0.344-6.344-1.785-9.108-2.707c-3.013-1.004-6.255-0.825-9.324-0.229c-6.685,1.301-12.78,5.444-17.739,9.957
				c-5.422,4.933-9.76,10.529-13.025,17.114c-0.557,1.123-1.021,2.258-1.391,3.415c0.307-2.76,0.529-5.523,0.752-8.246
				c0.472-5.777,1-11.611,1.192-17.42c5.262,3.009,11.872,1.588,16.456-3.502c3.62-4.019,3.961-9.552,3.977-14.69
				c0.013-3.745-0.356-7.468-0.687-11.193c0.661-0.31,1.194-0.928,1.229-1.836c0.256-6.499,8.309-10.386,13.615-12.086
				c6.854-2.194,14.087,0.386,19.172,5.108C194.363,43.551,196.381,50.482,196.231,57.289z M45.628,36.124
				c4.615-2.631,4.933-7.582,4.671-12.338c0.6-0.455,0.937-1.216,0.58-2.14c-1.588-4.117-5.176-5.855-9.038-3.33
				c-3.479,2.275-5.886,7.157-5.525,11.288C36.737,34.417,40.65,38.962,45.628,36.124z M42.78,22.813
				c1.194-1.42,2.406-2.083,3.373-1.324c0.249,3.13,0.795,6.541-0.637,9.458c-0.473,0.965-2.228,2.472-3.43,2.048
				c-1.292-0.455-1.611-2.545-1.798-3.676C39.905,27.002,41.357,24.504,42.78,22.813z M50.938,44.709
				c0.714-2.478-3.198-3.232-3.904-0.782c-1.309,4.537,3.896,5.312,7.041,4.555c2.055-0.495,3.963-1.684,5.269-3.301
				c2.907,4.721,10.273,6.786,13.438,0.831c1.211-2.278-2.369-4.025-3.572-1.762c-1.887,3.549-6.658,0.328-7.04-2.904
				c1.018-0.192,2.007-0.624,2.886-1.317c2.357-1.858,3.27-5.062,1.538-7.661c-1.819-2.729-6.362-3.964-8.99-1.734
				c-2.15,1.823-2.44,4.822-1.342,7.25c-0.262,0.678-0.159,1.475,0.58,2.081c0.069,0.057,0.146,0.096,0.216,0.149
				c0.131,2.15-1.411,3.539-3.373,4.309c-0.764,0.3-1.687,0.527-2.493,0.447c-0.095-0.009-0.191-0.032-0.281-0.057
				C50.92,44.778,50.926,44.752,50.938,44.709z M59.929,33.906c0.252-0.327,0.568-0.498,1.113-0.446
				c0.85,0.079,1.755,0.495,2.267,1.164c0.322,0.421,0.294,0.59,0.184,1.09c-0.05,0.224-0.503,0.879-0.862,1.161
				c-0.599,0.472-1.238,0.717-1.888,0.649c-0.048-0.087-0.096-0.174-0.163-0.253c-0.508-0.597-0.893-1.232-0.979-1.959
				C59.533,34.733,59.647,34.271,59.929,33.906z"/>
		</g>
	</g>
</g>
</svg>
