<?xml version="1.0" encoding="utf-8"?>
<!-- Generator: Adobe Illustrator 16.0.0, SVG Export Plug-In . SVG Version: 6.00 Build 0)  -->
<!DOCTYPE svg PUBLIC "-//W3C//DTD SVG 1.1//EN" "http://www.w3.org/Graphics/SVG/1.1/DTD/svg11.dtd">
<svg version="1.1" xmlns="http://www.w3.org/2000/svg" xmlns:xlink="http://www.w3.org/1999/xlink" x="0px" y="0px" width="200px"
	 height="152px" viewBox="0 0 200 152" enable-background="new 0 0 200 152" xml:space="preserve">
<g id="形状_216_1_" enable-background="new    ">
	<g id="形状_216">
		<g>
			<polygon fill-rule="evenodd" clip-rule="evenodd" fill="#0083C0" points="24.674,136.178 0.233,112.678 -0.256,151.678 
				32.495,151.678 			"/>
		</g>
	</g>
</g>
<g id="形状_220_1_" enable-background="new    ">
	<g id="形状_220">
		<g>
			<polygon fill-rule="evenodd" clip-rule="evenodd" fill="#0781BA" points="5.893,148.792 18.603,148.292 18.603,147.293 			"/>
		</g>
	</g>
</g>
<g id="形状_219_1_" enable-background="new    ">
	<g id="形状_219">
		<g>
			<polygon fill-rule="evenodd" clip-rule="evenodd" fill="#0781BA" points="5.893,140.293 18.603,144.792 19.092,142.792 			"/>
		</g>
	</g>
</g>
<g id="形状_218_1_" enable-background="new    ">
	<g id="形状_218">
		<g>
			<polygon fill-rule="evenodd" clip-rule="evenodd" fill="#0781BA" points="5.893,126.792 20.069,139.792 20.558,138.793 			"/>
		</g>
	</g>
</g>
<g id="圆角矩形_1_1_" enable-background="new    ">
	<g id="圆角矩形_1">
		<g>
			<path fill-rule="evenodd" clip-rule="evenodd" fill="#0083C0" d="M195.068,11.793H29.357c-2.7,0-4.889,2.237-4.889,4.999v130.501
				c0,2.761,2.189,4.999,4.889,4.999h165.711c2.699,0,4.888-2.238,4.888-4.999V16.792C199.956,14.03,197.768,11.793,195.068,11.793z
				"/>
		</g>
	</g>
</g>
<g id="形状_652_1_" enable-background="new    ">
	<g id="形状_652">
		<g>
			<rect x="188" y="60" fill-rule="evenodd" clip-rule="evenodd" fill="#EB5B58" width="4" height="4"/>
		</g>
	</g>
</g>
<g id="形状_653_1_" enable-background="new    ">
	<g id="形状_653">
		<g>
			<rect x="192" y="64" fill-rule="evenodd" clip-rule="evenodd" fill="#EB5B58" width="4" height="4"/>
		</g>
	</g>
</g>
<g id="形状_654_1_" enable-background="new    ">
	<g id="形状_654">
		<g>
			<rect x="196" y="64" fill-rule="evenodd" clip-rule="evenodd" fill="#EB5B58" width="4" height="4"/>
		</g>
	</g>
</g>
<g id="形状_655_1_" opacity="0.2" enable-background="new    ">
	<g id="形状_655">
		<g>
			<rect x="188" y="64" fill-rule="evenodd" clip-rule="evenodd" fill="#EB5B58" width="4" height="4"/>
		</g>
	</g>
</g>
<g id="形状_656_1_" opacity="0.2" enable-background="new    ">
	<g id="形状_656">
		<g>
			<rect x="192" y="60" fill-rule="evenodd" clip-rule="evenodd" fill="#EB5B58" width="4" height="4"/>
		</g>
	</g>
</g>
<g id="形状_657_1_" opacity="0.2" enable-background="new    ">
	<g id="形状_657">
		<g>
			<rect x="196" y="68" fill-rule="evenodd" clip-rule="evenodd" fill="#EB5B58" width="4" height="4"/>
		</g>
	</g>
</g>
<g id="形状_658_1_" opacity="0.2" enable-background="new    ">
	<g id="形状_658">
		<g>
			<rect x="196" y="60" fill-rule="evenodd" clip-rule="evenodd" fill="#EB5B58" width="4" height="4"/>
		</g>
	</g>
</g>
<g id="椭圆_1_1_" enable-background="new    ">
	<g id="椭圆_1">
		<g>
			<path fill-rule="evenodd" clip-rule="evenodd" fill="#FFFFFF" d="M187.985,2.099c-4.696,0.069-10.54,3.975-10.468,8.578
				s6.148,6.021,10.846,5.951c4.695-0.07,8.328-1.717,8.256-6.32S192.682,2.029,187.985,2.099z M159.696,5.992
				c-4.306,0.063-8.652,3.669-8.586,7.889c0.065,4.221,4.654,5.557,8.96,5.493c4.305-0.064,7.607-1.638,7.541-5.857
				S164.001,5.928,159.696,5.992z"/>
		</g>
	</g>
</g>
<g id="椭圆_2_1_" enable-background="new    ">
	<g id="椭圆_2">
		<g>
			<path fill-rule="evenodd" clip-rule="evenodd" d="M189.035,3.572c-1.565,0.023-2.814,1.286-2.791,2.82
				c0.024,1.535,1.313,2.76,2.879,2.737c1.564-0.023,2.814-1.286,2.79-2.82C191.889,4.774,190.601,3.55,189.035,3.572z
				 M161.09,6.767c-1.37,0.02-2.463,1.125-2.441,2.468c0.021,1.343,1.148,2.414,2.518,2.394c1.37-0.02,2.463-1.125,2.441-2.468
				C163.587,7.818,162.459,6.746,161.09,6.767z"/>
		</g>
	</g>
</g>
</svg>
