<?xml version="1.0" encoding="utf-8"?>
<!-- Generator: Adobe Illustrator 16.0.0, SVG Export Plug-In . SVG Version: 6.00 Build 0)  -->
<!DOCTYPE svg PUBLIC "-//W3C//DTD SVG 1.1//EN" "http://www.w3.org/Graphics/SVG/1.1/DTD/svg11.dtd">
<svg version="1.1" id="形状_467_副本_1_" xmlns="http://www.w3.org/2000/svg" xmlns:xlink="http://www.w3.org/1999/xlink"
	 x="0px" y="0px" width="200px" height="200px" viewBox="0 0 200 200" enable-background="new 0 0 200 200" xml:space="preserve">
<g id="形状_467_副本">
	<g>
		<path fill-rule="evenodd" clip-rule="evenodd" fill="#FF3333" d="M200.027,99.743c0-55.235-44.777-100.013-100.013-100.013
			C44.779-0.27,0.002,44.508,0.002,99.743c0,55.236,44.777,100.014,100.012,100.014c22.847,0,43.9-7.666,60.74-20.56l0.339,0.339
			l3.048-3.048C186.073,158.143,200.027,130.574,200.027,99.743z M180.016,99.574c0,19.847-7.239,37.992-19.201,51.979
			L47.998,38.737C61.985,26.775,80.13,19.535,99.978,19.535C144.182,19.535,180.016,55.369,180.016,99.574z M99.978,179.613
			c-44.204,0-80.039-35.835-80.039-80.039c0-17.29,5.5-33.286,14.822-46.372l111.588,111.588
			C133.263,174.112,117.268,179.613,99.978,179.613z"/>
	</g>
</g>
</svg>
