<?xml version="1.0" encoding="utf-8"?>
<!-- Generator: Adobe Illustrator 16.0.0, SVG Export Plug-In . SVG Version: 6.00 Build 0)  -->
<!DOCTYPE svg PUBLIC "-//W3C//DTD SVG 1.1//EN" "http://www.w3.org/Graphics/SVG/1.1/DTD/svg11.dtd">
<svg version="1.1" xmlns="http://www.w3.org/2000/svg" xmlns:xlink="http://www.w3.org/1999/xlink" x="0px" y="0px" width="164px"
	 height="200px" viewBox="0 0 164 200" enable-background="new 0 0 164 200" xml:space="preserve">
<g id="Cloud_1_" enable-background="new    ">
	<g id="Cloud">
		<g>
			<path fill-rule="evenodd" clip-rule="evenodd" fill="#858585" d="M137.759,41.909c0.014-0.436,0.033-0.871,0.033-1.311
				c0-22.779-18.415-41.245-41.132-41.245c-15.718,0-29.371,8.843-36.296,21.835c-2.158-0.771-4.471-1.212-6.893-1.212
				c-11.358,0-20.565,9.232-20.565,20.622c0,0.134,0.018,0.263,0.02,0.396C14.565,42.053,0,57.314,0,75.99
				c0,19.361,15.653,35.058,34.962,35.058h94.604c19.31,0,34.962-15.696,34.962-35.058
				C164.527,59.458,153.113,45.608,137.759,41.909z"/>
		</g>
	</g>
</g>
<g id="椭圆_1_1_" enable-background="new    ">
	<g id="椭圆_1">
		<g>
			<path fill-rule="evenodd" clip-rule="evenodd" fill="#34B9F1" d="M99.848,125c0,0-10.717,14.35-10.717,20.278
				c0,5.93,4.798,10.736,10.717,10.736s10.717-4.807,10.717-10.736C110.564,139.35,99.848,125,99.848,125z"/>
		</g>
	</g>
</g>
<g id="椭圆_1_副本_2_1_" enable-background="new    ">
	<g id="椭圆_1_副本_2">
		<g>
			<path fill-rule="evenodd" clip-rule="evenodd" fill="#34B9F1" d="M50.14,117.857c0,0-7.357,9.851-7.357,13.922
				c0,4.07,3.294,7.37,7.357,7.37s7.358-3.3,7.358-7.37C57.498,127.708,50.14,117.857,50.14,117.857z"/>
		</g>
	</g>
</g>
<g id="椭圆_1_副本_6_1_" enable-background="new    ">
	<g id="椭圆_1_副本_6">
		<g>
			<path fill-rule="evenodd" clip-rule="evenodd" fill="#34B9F1" d="M132.141,157.143c0,0-7.357,9.852-7.357,13.922
				c0,4.071,3.293,7.371,7.357,7.371c4.063,0,7.357-3.3,7.357-7.371C139.498,166.994,132.141,157.143,132.141,157.143z"/>
		</g>
	</g>
</g>
<g id="椭圆_1_副本_1_" enable-background="new    ">
	<g id="椭圆_1_副本">
		<g>
			<path fill-rule="evenodd" clip-rule="evenodd" fill="#34B9F1" d="M60.63,167.857c0,0-10.717,14.35-10.717,20.278
				c0,5.93,4.798,10.735,10.717,10.735c5.919,0,10.717-4.806,10.717-10.735C71.347,182.207,60.63,167.857,60.63,167.857z"/>
		</g>
	</g>
</g>
</svg>
