<?xml version="1.0" encoding="utf-8"?>
<!-- Generator: Adobe Illustrator 16.0.0, SVG Export Plug-In . SVG Version: 6.00 Build 0)  -->
<!DOCTYPE svg PUBLIC "-//W3C//DTD SVG 1.1//EN" "http://www.w3.org/Graphics/SVG/1.1/DTD/svg11.dtd">
<svg version="1.1" id="tree4_1_" xmlns="http://www.w3.org/2000/svg" xmlns:xlink="http://www.w3.org/1999/xlink" x="0px" y="0px"
	 width="82px" height="200px" viewBox="0 0 82 200" enable-background="new 0 0 82 200" xml:space="preserve">
<g id="形状_120">
	<g>
		<polygon fill-rule="evenodd" clip-rule="evenodd" fill="#59994C" points="1.893,170.6 80.639,168.562 39.988,0 39.509,0 		"/>
	</g>
</g>
<g id="形状_121">
	<g>
		<polygon fill-rule="evenodd" clip-rule="evenodd" fill="#6F2C0F" points="39.609,33.514 38.123,200.225 46.775,200.286 		"/>
	</g>
</g>
<g id="形状_122">
	<g>
		<polygon fill-rule="evenodd" clip-rule="evenodd" fill="#6F2C0F" points="41.944,103.502 40.194,108.673 52.347,98.392 		"/>
	</g>
</g>
<g id="形状_123">
	<g>
		<polygon fill-rule="evenodd" clip-rule="evenodd" fill="#6F2C0F" points="39.384,93.981 27.296,86.985 41.102,97.449 		"/>
	</g>
</g>
<g id="形状_124">
	<g>
		<polygon fill-rule="evenodd" clip-rule="evenodd" fill="#6F2C0F" points="39.416,85.343 42.009,86.226 51.568,75.063 		"/>
	</g>
</g>
<g id="形状_125">
	<g>
		<polygon fill-rule="evenodd" clip-rule="evenodd" fill="#6F2C0F" points="31.703,65.421 38.605,70.652 39.48,68.066 		"/>
	</g>
</g>
<g id="形状_126">
	<g>
		<polygon fill-rule="evenodd" clip-rule="evenodd" fill="#6F2C0F" points="22.015,111.136 41.005,123.363 42.755,118.192 		"/>
	</g>
</g>
<g id="形状_127">
	<g>
		<polygon fill-rule="evenodd" clip-rule="evenodd" fill="#6F2C0F" points="42.69,135.469 40.941,140.64 60.902,124.367 		"/>
	</g>
</g>
<g id="形状_128">
	<g>
		<polygon fill-rule="evenodd" clip-rule="evenodd" fill="#6F2C0F" points="13.234,145.628 40.001,160.502 41.751,155.331 		"/>
	</g>
</g>
</svg>
