<svg viewBox="0 0 301 38" xmlns="http://www.w3.org/2000/svg"><title>Screencastify Free</title><g fill="none" fill-rule="evenodd"><path d="M60.083 29.395c1.314 0 2.476-.183 3.489-.55 1.012-.366 1.868-.855 2.568-1.47a6.213 6.213 0 0 0 2.148-4.699c0-1.464-.356-2.66-1.066-3.585-.71-.926-1.723-1.648-3.037-2.165l-2.551-1c-.97-.367-1.728-.685-2.278-.954-.549-.269-.823-.651-.823-1.147 0-.473.193-.829.581-1.065.388-.237.926-.356 1.615-.356.775 0 1.491.13 2.148.388s1.34.635 2.051 1.13l2.778-3.488a9.016 9.016 0 0 0-3.31-2.132c-1.239-.452-2.461-.678-3.667-.678-1.141 0-2.191.172-3.15.516-.958.345-1.781.813-2.47 1.406a6.494 6.494 0 0 0-1.616 2.067 5.655 5.655 0 0 0-.581 2.536c0 .753.113 1.442.34 2.067a5.8 5.8 0 0 0 .92 1.663c.387.485.84.905 1.357 1.26.516.355 1.055.64 1.615.856l2.616 1.098c.452.173.85.329 1.195.469.345.14.64.285.888.436.248.15.437.312.566.484.129.173.194.388.194.646 0 .474-.189.84-.566 1.099-.377.258-.985.387-1.825.387-.775 0-1.599-.188-2.47-.565a10.655 10.655 0 0 1-2.44-1.47l-3.165 3.812c1.141 1.034 2.417 1.793 3.828 2.277s2.783.727 4.118.727zm17.725 0c.84 0 1.75-.156 2.73-.469a7.61 7.61 0 0 0 2.697-1.534l-2.197-3.489c-.366.259-.759.496-1.179.711-.42.215-.888.323-1.405.323-.883 0-1.62-.36-2.213-1.082-.592-.721-.888-1.696-.888-2.923 0-1.228.29-2.202.872-2.924.582-.721 1.39-1.082 2.423-1.082.301 0 .597.054.888.162s.62.312.985.613l2.52-3.424c-.56-.56-1.244-1-2.051-1.324s-1.696-.484-2.665-.484a9.586 9.586 0 0 0-3.279.565 8.233 8.233 0 0 0-2.762 1.647c-.796.722-1.432 1.61-1.905 2.665-.474 1.055-.711 2.25-.711 3.586 0 1.335.21 2.53.63 3.585.42 1.055.996 1.944 1.728 2.665a7.37 7.37 0 0 0 2.584 1.647c.99.377 2.057.566 3.198.566zm12.816-.388v-8.98c.388-1.012.9-1.717 1.534-2.115.636-.399 1.244-.598 1.825-.598.366 0 .684.027.953.08s.555.114.856.178l.905-4.78c-.237-.108-.506-.189-.808-.242s-.7-.081-1.195-.081c-.797 0-1.61.253-2.439.759s-1.545 1.308-2.148 2.406h-.13l-.387-2.778h-4.522v16.151h5.556zm14.431.388c.904 0 1.89-.156 2.956-.469a9.79 9.79 0 0 0 2.923-1.405l-1.809-3.295c-.581.323-1.136.566-1.663.727s-1.072.242-1.632.242c-.904 0-1.69-.193-2.358-.581-.667-.388-1.13-1.098-1.389-2.132h9.206c.043-.194.092-.484.146-.872.053-.388.08-.83.08-1.324 0-1.077-.145-2.09-.436-3.037a7.228 7.228 0 0 0-1.308-2.487c-.581-.71-1.314-1.27-2.196-1.68s-1.917-.613-3.101-.613c-.99 0-1.95.193-2.875.581a7.515 7.515 0 0 0-2.471 1.68c-.722.732-1.303 1.62-1.745 2.665-.441 1.044-.662 2.223-.662 3.537 0 1.335.216 2.53.646 3.585s1.018 1.944 1.76 2.665a7.474 7.474 0 0 0 2.633 1.647c1.012.377 2.11.566 3.295.566zm1.744-10.272h-4.78c.172-.905.49-1.54.953-1.906s1.006-.55 1.63-.55c.84 0 1.417.238 1.729.711.312.474.468 1.056.468 1.745zm14.56 10.272c.905 0 1.89-.156 2.956-.469a9.79 9.79 0 0 0 2.923-1.405l-1.809-3.295c-.581.323-1.136.566-1.663.727s-1.072.242-1.631.242c-.905 0-1.69-.193-2.358-.581-.668-.388-1.131-1.098-1.39-2.132h9.206c.044-.194.092-.484.146-.872.054-.388.08-.83.08-1.324 0-1.077-.145-2.09-.435-3.037s-.727-1.776-1.309-2.487-1.313-1.27-2.196-1.68c-.883-.409-1.917-.613-3.101-.613-.99 0-1.949.193-2.875.581a7.515 7.515 0 0 0-2.471 1.68c-.721.732-1.303 1.62-1.744 2.665-.442 1.044-.662 2.223-.662 3.537 0 1.335.215 2.53.646 3.585.43 1.055 1.017 1.944 1.76 2.665.743.721 1.62 1.27 2.633 1.647s2.11.566 3.294.566zm1.745-10.272h-4.781c.172-.905.49-1.54.953-1.906.463-.366 1.007-.55 1.631-.55.84 0 1.416.238 1.728.711.312.474.469 1.056.469 1.745zm12.622 9.884V18.412c.43-.388.818-.69 1.162-.904s.776-.323 1.293-.323c.56 0 .969.172 1.227.516s.388 1.034.388 2.068v9.238h5.556v-9.949c0-2.003-.399-3.602-1.196-4.797-.796-1.195-2.078-1.793-3.843-1.793-1.099 0-2.062.232-2.891.695s-1.567 1.007-2.213 1.631h-.13l-.387-1.938h-4.522v16.151h5.556zm19.857.388c.84 0 1.75-.157 2.73-.469a7.61 7.61 0 0 0 2.696-1.534l-2.196-3.489c-.366.259-.76.496-1.18.711-.42.215-.887.323-1.404.323-.883 0-1.62-.36-2.213-1.082-.592-.722-.888-1.696-.888-2.923 0-1.228.29-2.202.872-2.924.581-.721 1.389-1.082 2.422-1.082.302 0 .598.054.889.162.29.107.619.312.985.613l2.52-3.424c-.56-.56-1.244-1-2.052-1.324s-1.695-.485-2.665-.485a9.586 9.586 0 0 0-3.278.566 8.233 8.233 0 0 0-2.762 1.647c-.797.722-1.432 1.61-1.906 2.665s-.71 2.25-.71 3.586c0 1.335.21 2.53.63 3.585.42 1.055.995 1.944 1.728 2.665.732.721 1.593 1.27 2.584 1.647s2.056.566 3.197.566zm11.265 0c.883 0 1.685-.178 2.406-.533s1.405-.824 2.051-1.405h.13l.387 1.55h4.522v-8.98c0-2.648-.597-4.57-1.792-5.766-1.196-1.195-2.838-1.792-4.926-1.792-1.271 0-2.488.183-3.65.549a15.964 15.964 0 0 0-3.457 1.583l1.938 3.617c.84-.452 1.583-.79 2.229-1.017.646-.226 1.26-.34 1.841-.34 1.378 0 2.132.56 2.261 1.68-3.1.324-5.34.964-6.718 1.922-1.379.959-2.068 2.278-2.068 3.957 0 .668.108 1.303.323 1.906.216.603.533 1.13.953 1.583.42.452.932.813 1.535 1.082s1.28.404 2.035.404zm1.938-4.264c-.99 0-1.486-.388-1.486-1.163 0-.452.247-.872.743-1.26.495-.388 1.41-.678 2.745-.872v2.196a5.804 5.804 0 0 1-.888.792c-.29.204-.662.307-1.114.307zm15.529 4.264c1.12 0 2.11-.135 2.971-.404.862-.27 1.583-.646 2.165-1.13a4.839 4.839 0 0 0 1.324-1.713 5.01 5.01 0 0 0 .452-2.115c0-.733-.124-1.362-.371-1.89-.248-.528-.57-.98-.97-1.357s-.845-.694-1.34-.953c-.495-.258-.98-.473-1.453-.646-.41-.15-.797-.285-1.163-.403-.366-.119-.69-.243-.97-.372s-.5-.27-.662-.42a.723.723 0 0 1-.242-.549c0-.603.474-.904 1.422-.904.495 0 1.022.118 1.582.355s1.13.57 1.712 1.001l2.455-3.295c-.71-.538-1.545-1.028-2.503-1.47-.958-.44-2.105-.661-3.44-.661-.948 0-1.815.123-2.6.371-.787.248-1.46.598-2.02 1.05s-.995 1.001-1.308 1.647c-.312.646-.468 1.368-.468 2.164 0 .668.124 1.255.372 1.76.247.507.565.954.952 1.341.388.388.824.716 1.309.985.484.27.963.501 1.437.695.41.172.797.323 1.163.452.366.13.694.264.985.404.29.14.522.29.695.452.172.162.258.35.258.565 0 .323-.124.566-.371.727-.248.162-.663.243-1.244.243-1.163 0-2.476-.539-3.94-1.616l-2.456 3.424c.84.69 1.836 1.239 2.988 1.648s2.245.614 3.279.614zm15.594 0c.904 0 1.658-.065 2.26-.194.604-.13 1.12-.259 1.551-.388l-.84-4.005c-.193.064-.414.124-.662.177s-.5.081-.759.081c-.517 0-.969-.167-1.357-.5s-.58-.953-.58-1.858v-5.523h3.681v-4.329h-3.682V8.657h-4.587l-.646 4.2-2.455.193v4.135h2.132v5.62c0 .99.113 1.89.34 2.697.226.808.58 1.502 1.065 2.084a4.744 4.744 0 0 0 1.841 1.34c.743.312 1.642.469 2.698.469zm8.358-18.541c.904 0 1.647-.259 2.228-.776.582-.516.873-1.184.873-2.002 0-.819-.291-1.486-.873-2.003-.58-.517-1.324-.775-2.228-.775-.905 0-1.648.258-2.23.775-.58.517-.871 1.184-.871 2.003 0 .818.29 1.486.872 2.002.581.517 1.324.776 2.229.776zm2.778 18.153V12.856h-5.556v16.15h5.556zm9.585 0V17.185h2.713v-4.329h-2.713v-.387c0-.754.15-1.276.452-1.567.302-.29.71-.436 1.228-.436a4.276 4.276 0 0 1 1.615.323l.969-4.07c-.366-.13-.84-.258-1.421-.388a9.288 9.288 0 0 0-2.003-.193c-1.206 0-2.213.177-3.02.532-.808.356-1.465.835-1.97 1.438-.507.603-.867 1.297-1.083 2.083s-.323 1.61-.323 2.471v.226l-2.132.162v4.135h2.132v11.822h5.556zm6.808 6.072c.99 0 1.857-.124 2.6-.371s1.405-.63 1.986-1.147 1.093-1.173 1.535-1.97c.441-.797.877-1.745 1.308-2.843l5.426-15.892h-5.297l-1.615 6.202c-.194.775-.371 1.54-.533 2.294-.161.753-.328 1.518-.5 2.293h-.13c-.194-.818-.377-1.599-.549-2.342a30.368 30.368 0 0 0-.614-2.245l-1.938-6.202h-5.556l6.138 15.57-.194.71c-.172.495-.447.888-.824 1.179-.377.29-.942.436-1.696.436-.172 0-.35-.022-.533-.065-.183-.043-.35-.086-.5-.129l-.97 4.2c.367.107.727.188 1.083.241s.813.081 1.373.081z" fill="#4F4F4F" fill-rule="nonzero"/><path fill="#fff" d="M14.108 10.177h15.156v16.789H14.108z"/><path fill="#fff" d="M27.871 15.098l6.882-3.937v14.894l-6.882-3.937z"/><path d="M3.064 10.177c-1.015 0-2.064.82-2.064 1.837v13.188c0 1.017 1.049 1.706 2.064 1.706h11.043V10.177H3.064zM45.206 17.132l-10.421-6.004L16.696.696C15.582.04 14.107.86 14.107 2.14v8.07h12.026c1.016 0 1.737.82 1.737 1.837v3.051l6.882-3.936v14.894l-6.882-3.937v3.15c0 1.016-.72 1.705-1.737 1.705H14.107v8.103c0 1.28 1.475 2.067 2.589 1.444l18.089-10.4 10.421-6.004c1.114-.754 1.114-2.362 0-2.985z" fill="#FF8282" fill-rule="nonzero"/><path d="M246.35 29.008V18.59h10.902v-1.757H246.35V8.961h11.992V7.204h-14.051v21.803h2.06zm16.625 0v-7.692c0-.868.076-1.701.227-2.498s.424-1.49.818-2.075.923-1.05 1.59-1.393c.666-.343 1.514-.505 2.543-.484v-1.969c-1.312 0-2.367.248-3.164.742-.798.495-1.449 1.368-1.953 2.62h-.061V13.32h-1.817v15.686h1.817zm14.021.424c.99 0 1.857-.132 2.604-.394s1.393-.63 1.938-1.105 1-1.03 1.363-1.666a9.783 9.783 0 0 0 .878-2.074h-2.029c-.282 1.15-.848 2.039-1.695 2.665s-1.868.938-3.059.938c-.868 0-1.635-.166-2.301-.5-.667-.332-1.217-.776-1.65-1.332s-.763-1.21-.985-1.968a8.512 8.512 0 0 1-.333-2.408H283.9c.02-2.826-.586-4.981-1.817-6.465-1.232-1.484-2.927-2.226-5.088-2.226-1.13 0-2.14.217-3.028.651a6.615 6.615 0 0 0-2.256 1.787 8.25 8.25 0 0 0-1.423 2.65c-.333 1.01-.5 2.09-.5 3.24 0 1.15.141 2.226.424 3.225.283 1 .717 1.868 1.302 2.604.586.737 1.333 1.318 2.241 1.742s1.989.636 3.24.636zm4.966-9.358h-10.236c.081-.747.253-1.453.515-2.12a6.091 6.091 0 0 1 1.045-1.756c.434-.505.959-.908 1.575-1.211s1.327-.454 2.135-.454 1.524.146 2.15.439a4.469 4.469 0 0 1 1.56 1.18 5.06 5.06 0 0 1 .938 1.757 7.2 7.2 0 0 1 .318 2.165zm11.871 9.358c.99 0 1.858-.132 2.605-.394s1.393-.63 1.938-1.105a6.4 6.4 0 0 0 1.363-1.666 9.783 9.783 0 0 0 .878-2.074h-2.03c-.282 1.15-.847 2.039-1.695 2.665-.848.626-1.867.938-3.058.938-.869 0-1.636-.166-2.302-.5-.666-.332-1.216-.776-1.65-1.332s-.763-1.21-.985-1.968a8.512 8.512 0 0 1-.333-2.408h12.174c.02-2.826-.585-4.981-1.817-6.465-1.231-1.484-2.927-2.226-5.087-2.226-1.13 0-2.14.217-3.028.651a6.615 6.615 0 0 0-2.257 1.787 8.25 8.25 0 0 0-1.423 2.65c-.333 1.01-.5 2.09-.5 3.24 0 1.15.142 2.226.424 3.225.283 1 .717 1.868 1.303 2.604.585.737 1.332 1.318 2.24 1.742s1.99.636 3.24.636zm4.967-9.358h-10.236c.08-.747.252-1.453.515-2.12a6.091 6.091 0 0 1 1.044-1.756c.434-.505.96-.908 1.575-1.211s1.328-.454 2.135-.454 1.524.146 2.15.439 1.146.686 1.56 1.18a5.06 5.06 0 0 1 .938 1.757 7.2 7.2 0 0 1 .318 2.165z" fill="#4F4F4F" fill-rule="nonzero"/></g></svg>