<svg viewBox="0 0 915 100" xmlns="http://www.w3.org/2000/svg"><title>Screencastify Unlimited</title><g fill="none" fill-rule="evenodd"><path d="M147.33 78.96c3.253 0 6.133-.453 8.64-1.36s4.627-2.12 6.36-3.64 3.053-3.293 3.96-5.32 1.36-4.133 1.36-6.32c0-3.627-.88-6.587-2.64-8.88s-4.267-4.08-7.52-5.36l-6.32-2.48c-2.4-.907-4.28-1.693-5.64-2.36s-2.04-1.613-2.04-2.84c0-1.173.48-2.053 1.44-2.64s2.293-.88 4-.88c1.92 0 3.693.32 5.32.96s3.32 1.573 5.08 2.8l6.88-8.64c-2.4-2.4-5.133-4.16-8.2-5.28s-6.093-1.68-9.08-1.68c-2.827 0-5.427.427-7.8 1.28s-4.413 2.013-6.12 3.48-3.04 3.173-4 5.12-1.44 4.04-1.44 6.28c0 1.867.28 3.573.84 5.12s1.32 2.92 2.28 4.12 2.08 2.24 3.36 3.12 2.613 1.587 4 2.12l6.48 2.72c1.12.427 2.107.813 2.96 1.16s1.587.707 2.2 1.08 1.08.773 1.4 1.2.48.96.48 1.6c0 1.173-.467 2.08-1.4 2.72s-2.44.96-4.52.96c-1.92 0-3.96-.467-6.12-1.4s-4.173-2.147-6.04-3.64l-7.84 9.44c2.827 2.56 5.987 4.44 9.48 5.64s6.893 1.8 10.2 1.8zm43.9 0c2.08 0 4.333-.387 6.76-1.16s4.653-2.04 6.68-3.8l-5.44-8.64c-.907.64-1.88 1.227-2.92 1.76s-2.2.8-3.48.8c-2.187 0-4.013-.893-5.48-2.68s-2.2-4.2-2.2-7.24.72-5.453 2.16-7.24 3.44-2.68 6-2.68c.747 0 1.48.133 2.2.4s1.533.773 2.44 1.52l6.24-8.48c-1.387-1.387-3.08-2.48-5.08-3.28s-4.2-1.2-6.6-1.2c-2.827 0-5.533.467-8.12 1.4s-4.867 2.293-6.84 4.08-3.547 3.987-4.72 6.6-1.76 5.573-1.76 8.88.52 6.267 1.56 8.88 2.467 4.813 4.28 6.6 3.947 3.147 6.4 4.08 5.093 1.4 7.92 1.4zm31.74-.96V55.76c.96-2.507 2.227-4.253 3.8-5.24s3.08-1.48 4.52-1.48c.907 0 1.693.067 2.36.2s1.373.28 2.12.44l2.24-11.84c-.587-.267-1.253-.467-2-.6s-1.733-.2-2.96-.2c-1.973 0-3.987.627-6.04 1.88s-3.827 3.24-5.32 5.96h-.32l-.96-6.88h-11.2v40h13.76zm35.74.96c2.24 0 4.68-.387 7.32-1.16s5.053-1.933 7.24-3.48l-4.48-8.16c-1.44.8-2.813 1.4-4.12 1.8s-2.653.6-4.04.6c-2.24 0-4.187-.48-5.84-1.44s-2.8-2.72-3.44-5.28h22.8c.107-.48.227-1.2.36-2.16s.2-2.053.2-3.28c0-2.667-.36-5.173-1.08-7.52s-1.8-4.4-3.24-6.16-3.253-3.147-5.44-4.16-4.747-1.52-7.68-1.52c-2.453 0-4.827.48-7.12 1.44s-4.333 2.347-6.12 4.16-3.227 4.013-4.32 6.6-1.64 5.507-1.64 8.76c0 3.307.533 6.267 1.6 8.88s2.52 4.813 4.36 6.6 4.013 3.147 6.52 4.08 5.227 1.4 8.16 1.4zm4.32-25.44h-11.84c.427-2.24 1.213-3.813 2.36-4.72s2.493-1.36 4.04-1.36c2.08 0 3.507.587 4.28 1.76s1.16 2.613 1.16 4.32zm36.06 25.44c2.24 0 4.68-.387 7.32-1.16s5.053-1.933 7.24-3.48l-4.48-8.16c-1.44.8-2.813 1.4-4.12 1.8s-2.653.6-4.04.6c-2.24 0-4.187-.48-5.84-1.44s-2.8-2.72-3.44-5.28h22.8c.107-.48.227-1.2.36-2.16s.2-2.053.2-3.28c0-2.667-.36-5.173-1.08-7.52s-1.8-4.4-3.24-6.16-3.253-3.147-5.44-4.16-4.747-1.52-7.68-1.52c-2.453 0-4.827.48-7.12 1.44s-4.333 2.347-6.12 4.16-3.227 4.013-4.32 6.6-1.64 5.507-1.64 8.76c0 3.307.533 6.267 1.6 8.88s2.52 4.813 4.36 6.6 4.013 3.147 6.52 4.08 5.227 1.4 8.16 1.4zm4.32-25.44h-11.84c.427-2.24 1.213-3.813 2.36-4.72s2.493-1.36 4.04-1.36c2.08 0 3.507.587 4.28 1.76s1.16 2.613 1.16 4.32zM334.67 78V51.76c1.067-.96 2.027-1.707 2.88-2.24s1.92-.8 3.2-.8c1.387 0 2.4.427 3.04 1.28s.96 2.56.96 5.12V78h13.76V53.36c0-4.96-.987-8.92-2.96-11.88s-5.147-4.44-9.52-4.44c-2.72 0-5.107.573-7.16 1.72s-3.88 2.493-5.48 4.04h-.32l-.96-4.8h-11.2v40h13.76zm49.18.96c2.08 0 4.333-.387 6.76-1.16s4.653-2.04 6.68-3.8l-5.44-8.64c-.907.64-1.88 1.227-2.92 1.76s-2.2.8-3.48.8c-2.187 0-4.013-.893-5.48-2.68s-2.2-4.2-2.2-7.24.72-5.453 2.16-7.24 3.44-2.68 6-2.68c.747 0 1.48.133 2.2.4s1.533.773 2.44 1.52l6.24-8.48c-1.387-1.387-3.08-2.48-5.08-3.28s-4.2-1.2-6.6-1.2c-2.827 0-5.533.467-8.12 1.4s-4.867 2.293-6.84 4.08-3.547 3.987-4.72 6.6-1.76 5.573-1.76 8.88.52 6.267 1.56 8.88 2.467 4.813 4.28 6.6 3.947 3.147 6.4 4.08 5.093 1.4 7.92 1.4zm27.9 0c2.187 0 4.173-.44 5.96-1.32s3.48-2.04 5.08-3.48h.32l.96 3.84h11.2V55.76c0-6.56-1.48-11.32-4.44-14.28s-7.027-4.44-12.2-4.44c-3.147 0-6.16.453-9.04 1.36s-5.733 2.213-8.56 3.92l4.8 8.96c2.08-1.12 3.92-1.96 5.52-2.52s3.12-.84 4.56-.84c3.413 0 5.28 1.387 5.6 4.16-7.68.8-13.227 2.387-16.64 4.76s-5.12 5.64-5.12 9.8c0 1.653.267 3.227.8 4.72s1.32 2.8 2.36 3.92 2.307 2.013 3.8 2.68 3.173 1 5.04 1zm4.8-10.56c-2.453 0-3.68-.96-3.68-2.88 0-1.12.613-2.16 1.84-3.12s3.493-1.68 6.8-2.16v5.44c-.747.8-1.48 1.453-2.2 1.96s-1.64.76-2.76.76zm38.46 10.56c2.773 0 5.227-.333 7.36-1s3.92-1.6 5.36-2.8 2.533-2.613 3.28-4.24 1.12-3.373 1.12-5.24c0-1.813-.307-3.373-.92-4.68s-1.413-2.427-2.4-3.36-2.093-1.72-3.32-2.36-2.427-1.173-3.6-1.6c-1.013-.373-1.973-.707-2.88-1s-1.707-.6-2.4-.92-1.24-.667-1.64-1.04-.6-.827-.6-1.36c0-1.493 1.173-2.24 3.52-2.24 1.227 0 2.533.293 3.92.88s2.8 1.413 4.24 2.48l6.08-8.16c-1.76-1.333-3.827-2.547-6.2-3.64s-5.213-1.64-8.52-1.64c-2.347 0-4.493.307-6.44.92s-3.613 1.48-5 2.6-2.467 2.48-3.24 4.08-1.16 3.387-1.16 5.36c0 1.653.307 3.107.92 4.36s1.4 2.36 2.36 3.32 2.04 1.773 3.24 2.44 2.387 1.24 3.56 1.72c1.013.427 1.973.8 2.88 1.12s1.72.653 2.44 1 1.293.72 1.72 1.12.64.867.64 1.4c0 .8-.307 1.4-.92 1.8s-1.64.6-3.08.6c-2.88 0-6.133-1.333-9.76-4l-6.08 8.48c2.08 1.707 4.547 3.067 7.4 4.08s5.56 1.52 8.12 1.52zm38.62 0c2.24 0 4.107-.16 5.6-.48s2.773-.64 3.84-.96l-2.08-9.92c-.48.16-1.027.307-1.64.44s-1.24.2-1.88.2c-1.28 0-2.4-.413-3.36-1.24s-1.44-2.36-1.44-4.6V48.72h9.12V38h-9.12V27.6h-11.36l-1.6 10.4-6.08.48v10.24h5.28v13.92c0 2.453.28 4.68.84 6.68s1.44 3.72 2.64 5.16 2.72 2.547 4.56 3.32 4.067 1.16 6.68 1.16zm20.7-45.92c2.24 0 4.08-.64 5.52-1.92s2.16-2.933 2.16-4.96-.72-3.68-2.16-4.96-3.28-1.92-5.52-1.92-4.08.64-5.52 1.92-2.16 2.933-2.16 4.96.72 3.68 2.16 4.96 3.28 1.92 5.52 1.92zM521.21 78V38h-13.76v40h13.76zm23.74 0V48.72h6.72V38h-6.72v-.96c0-1.867.373-3.16 1.12-3.88s1.76-1.08 3.04-1.08c.64 0 1.307.067 2 .2s1.36.333 2 .6l2.4-10.08c-.907-.32-2.08-.64-3.52-.96s-3.093-.48-4.96-.48c-2.987 0-5.48.44-7.48 1.32s-3.627 2.067-4.88 3.56-2.147 3.213-2.68 5.16-.8 3.987-.8 6.12v.56l-5.28.4v10.24h5.28V78h13.76zm16.86 15.04c2.453 0 4.6-.307 6.44-.92s3.48-1.56 4.92-2.84 2.707-2.907 3.8-4.88 2.173-4.32 3.24-7.04L593.65 38h-13.12l-4 15.36c-.48 1.92-.92 3.813-1.32 5.68s-.813 3.76-1.24 5.68h-.32c-.48-2.027-.933-3.96-1.36-5.8s-.933-3.693-1.52-5.56L565.97 38h-13.76l15.2 38.56-.48 1.76c-.427 1.227-1.107 2.2-2.04 2.92s-2.333 1.08-4.2 1.08c-.427 0-.867-.053-1.32-.16s-.867-.213-1.24-.32l-2.4 10.4c.907.267 1.8.467 2.68.6s2.013.2 3.4.2z" fill="#4F4F4F" fill-rule="nonzero"/><path fill="#fff" d="M33.464 31.362H71v41.58H33.464z"/><path fill="#fff" d="M67.551 43.55l17.043-9.75v36.888l-17.043-9.75z"/><path d="M6.113 31.362C3.597 31.362 1 33.393 1 35.912v32.662c0 2.519 2.597 4.225 5.113 4.225h27.351V31.361H6.113z" fill="#FF8282" fill-rule="nonzero"/><path d="M110.48 48.588L84.671 33.719l-44.8-25.838c-2.76-1.625-6.412.406-6.412 3.575v19.988h29.786c2.516 0 4.302 2.031 4.302 4.55v7.556L84.59 33.8v36.888l-17.043-9.75v7.8c0 2.519-1.786 4.225-4.302 4.225H33.46v20.07c0 3.168 3.653 5.118 6.412 3.574l44.8-25.756 25.809-14.869c2.76-1.869 2.76-5.85 0-7.394z" fill="#FF8282" fill-rule="nonzero"/><path d="M625.08 79.425c7 0 12.238-1.863 15.712-5.588s5.213-9.112 5.213-16.162V24h-5.1v32.175c0 3.2-.275 5.975-.825 8.325s-1.45 4.313-2.7 5.888-2.888 2.75-4.913 3.525-4.488 1.163-7.388 1.163c-5.55 0-9.575-1.476-12.075-4.426s-3.75-7.775-3.75-14.475V24h-5.1v33.675c0 6.9 1.725 12.25 5.175 16.05s8.7 5.7 15.75 5.7zM662.055 78V57.075c0-1.35.05-2.6.15-3.75s.375-2.35.825-3.6a11.304 11.304 0 0 1 3.862-5.25c.926-.7 1.963-1.262 3.113-1.688s2.425-.637 3.825-.637c3.6 0 6.175.875 7.725 2.625s2.325 4.375 2.325 7.875V78h4.5V52.575c0-1.6-.087-3.138-.262-4.612s-.738-2.913-1.688-4.313c-1.4-2.05-3.125-3.487-5.175-4.312S676.98 38.1 674.58 38.1c-2.7 0-5.012.6-6.937 1.8s-3.788 2.75-5.588 4.65v-5.4h-4.5V78h4.5zm42.375 0V24h-4.5v54h4.5zm16.875-47.325V24h-4.95v6.675h4.95zM721.08 78V39.15h-4.5V78h4.5zm15.375 0V57.075c0-.8.037-1.675.113-2.625s.212-1.9.412-2.85.463-1.863.787-2.737.738-1.638 1.238-2.288c1.15-1.5 2.487-2.612 4.013-3.337s3.112-1.088 4.762-1.088c3.2 0 5.388.8 6.563 2.4s1.762 3.8 1.762 6.6V78h4.5V57.075c0-.8.038-1.675.113-2.625s.212-1.9.412-2.85.463-1.863.788-2.737.737-1.638 1.237-2.288c1.15-1.5 2.488-2.612 4.013-3.337s3.112-1.088 4.762-1.088c3.2 0 5.388.8 6.563 2.4s1.762 3.8 1.762 6.6V78h4.5V53.475c0-1.95-.137-3.85-.412-5.7s-.838-3.487-1.688-4.912-2.062-2.576-3.637-3.45-3.688-1.313-6.338-1.313c-2.8 0-5.287.612-7.462 1.837s-3.913 3.113-5.213 5.663c-.4-1.05-.887-2.025-1.462-2.925s-1.3-1.688-2.175-2.362-1.938-1.213-3.188-1.613-2.775-.6-4.575-.6c-2.55 0-4.9.588-7.05 1.762s-3.8 2.888-4.95 5.138h-.15v-5.85h-4.5V78h4.5zm63.975-47.325V24h-4.95v6.675h4.95zM800.205 78V39.15h-4.5V78h4.5zm19.95 1.05c1.1 0 2.1-.125 3-.375s1.625-.425 2.175-.525v-3.675c-.6.15-1.212.275-1.837.375s-1.238.15-1.838.15c-.95 0-1.687-.1-2.212-.3s-.913-.525-1.163-.975-.4-1.025-.45-1.725-.075-1.525-.075-2.475V42.9h7.275v-3.75h-7.275v-10.8h-4.5v10.8h-5.475v3.75h5.475v28.425c0 2.9.588 4.913 1.762 6.038s2.888 1.687 5.138 1.687zm28.2 0c2.45 0 4.6-.325 6.45-.975s3.45-1.563 4.8-2.737 2.475-2.55 3.375-4.125 1.625-3.288 2.175-5.138h-5.025c-.7 2.85-2.1 5.05-4.2 6.6S851.305 75 848.355 75c-2.15 0-4.05-.412-5.7-1.238s-3.013-1.924-4.088-3.3-1.887-3-2.437-4.874-.825-3.863-.825-5.963h30.15c.05-7-1.45-12.338-4.5-16.012s-7.25-5.512-12.6-5.512c-2.8 0-5.3.537-7.5 1.612s-4.063 2.55-5.588 4.425-2.7 4.063-3.525 6.563-1.237 5.174-1.237 8.024.35 5.513 1.05 7.988 1.775 4.625 3.225 6.45 3.3 3.263 5.55 4.313 4.925 1.574 8.025 1.574zm12.3-23.175h-25.35c.2-1.85.625-3.6 1.275-5.25s1.512-3.1 2.587-4.35 2.375-2.25 3.9-3 3.288-1.125 5.288-1.125 3.775.362 5.325 1.087 2.838 1.7 3.863 2.925 1.8 2.675 2.325 4.35.787 3.463.787 5.363zM890.58 79.05c1.25 0 2.525-.175 3.825-.525s2.563-.85 3.788-1.5 2.35-1.463 3.375-2.438 1.862-2.112 2.512-3.412h.15V78h4.5V24h-4.5v21.375c-1.45-2.4-3.437-4.213-5.962-5.438s-5.163-1.837-7.913-1.837c-2.95 0-5.512.563-7.687 1.688s-3.975 2.625-5.4 4.5-2.488 4.062-3.188 6.562-1.05 5.1-1.05 7.8c0 2.85.325 5.525.975 8.025s1.688 4.662 3.113 6.487 3.237 3.263 5.437 4.313 4.875 1.575 8.025 1.575zm.525-4.05c-1.9 0-3.65-.338-5.25-1.012s-3-1.663-4.2-2.963-2.138-2.888-2.813-4.763-1.012-4.037-1.012-6.487c-.1-2.45.1-4.738.6-6.863s1.3-3.987 2.4-5.587 2.5-2.863 4.2-3.788 3.725-1.387 6.075-1.387c2.05 0 3.888.437 5.513 1.312s3 2.05 4.125 3.525 1.987 3.2 2.587 5.175.9 4.063.9 6.263c0 2.35-.287 4.537-.863 6.562s-1.412 3.775-2.512 5.25-2.475 2.638-4.125 3.488S893.205 75 891.105 75z" fill="#4F4F4F" fill-rule="nonzero"/></g></svg>