<svg width="24" height="24" xmlns="http://www.w3.org/2000/svg"><g fill="#F2F2F2"><path d="M20.944 6.453l-1.277 12.821H4.332L3.304 6.702 12 11.57z"/><path d="M20.511 4.038L12 12.034 3.489 4.038H12z"/></g><path d="M4.332 7.73v11.544h-1.39A.943.943 0 012 18.331V6.03l1.523.041.81 1.66z" fill="#F14336"/><path d="M22 6.03v12.301c0 .52-.422.943-.943.943h-1.39V7.73l.77-1.817L22 6.03z" fill="#D32E2A"/><path d="M22 4.981V6.03l-2.332 1.7L12 13.32 4.332 7.73 2 6.03V4.981c0-.52.422-.943.943-.943h.546L12 10.242l8.511-6.204h.546c.52 0 .943.423.943.943z" fill="#F14336"/><path fill="#D32E2A" d="M4.332 7.73L2 7.37V6.03z"/></svg>