<?xml version="1.0" encoding="utf-8"?>
<!-- Generator: Adobe Illustrator 16.0.0, SVG Export Plug-In . SVG Version: 6.00 Build 0)  -->
<!DOCTYPE svg PUBLIC "-//W3C//DTD SVG 1.1//EN" "http://www.w3.org/Graphics/SVG/1.1/DTD/svg11.dtd">
<svg version="1.1" id="颜色填充_1_1_" xmlns="http://www.w3.org/2000/svg" xmlns:xlink="http://www.w3.org/1999/xlink" x="0px"
	 y="0px" width="195px" height="200px" viewBox="0 0 195 200" enable-background="new 0 0 195 200" xml:space="preserve">
<g id="颜色填充_1">
	<g>
		<path fill-rule="evenodd" clip-rule="evenodd" fill="#3B5998" d="M131.156,83.309c-4.008-8.633-17.64-21.771-33.549-32.848
			C79.461,37.826,60.26,2.452,57.728,2.241c-3.791-0.315-15.192,9.476-11.605,24.847s17.302,29.689,18.568,37.901
			s1.266,16.845-11.394,18.108s-20.89-1.264-29.541-1.474c-8.651-0.211-20.89,4.843-21.312,15.16
			c-0.422,10.318,8.44,14.74,8.44,14.74s-6.541,5.475-6.119,14.949c0.422,9.476,7.807,14.319,7.807,14.319
			s-5.274,13.055-0.844,18.74c4.431,5.685,9.707,8.211,9.707,8.211s-1.267,12.635,3.798,17.688
			c5.064,5.054,15.101,16.455,61.19,9.055c12.586-2.021,34.184-6.527,34.184-6.527s24.687-63.884,24.687-84.857
			C145.294,102.891,135.353,92.345,131.156,83.309z M189.183,107.313c-2.321-6.106-35.448-8.001-36.926-3.158
			c0,0-14.646,66.594-24.477,78.961c-2.439,3.07,0.212,10.95,3.165,12.213c2.954,1.264,16.881,5.896,25.109,3.369
			c8.229-2.526,25.531-37.901,27.22-46.955C184.963,142.688,191.504,113.419,189.183,107.313z"/>
	</g>
</g>
</svg>
