<?xml version="1.0" encoding="utf-8"?>
<!-- Generator: Adobe Illustrator 16.0.0, SVG Export Plug-In . SVG Version: 6.00 Build 0)  -->
<!DOCTYPE svg PUBLIC "-//W3C//DTD SVG 1.1//EN" "http://www.w3.org/Graphics/SVG/1.1/DTD/svg11.dtd">
<svg version="1.1" id="形状_467_1_" xmlns="http://www.w3.org/2000/svg" xmlns:xlink="http://www.w3.org/1999/xlink" x="0px"
	 y="0px" width="200px" height="200px" viewBox="0 0 200 200" enable-background="new 0 0 200 200" xml:space="preserve">
<g id="形状_467">
	<g>
		<path fill-rule="evenodd" clip-rule="evenodd" fill="#66CCFF" d="M89.844,150h20L110,130.156l-20-0.313L89.844,150z M100.04,0.155
			C44.789,0.155,0,44.945,0,100.196S44.789,200.237,100.04,200.237c55.251,0,100.042-44.79,100.042-100.041
			S155.291,0.155,100.04,0.155z M100.006,179.919c-44.128,0-79.902-35.772-79.902-79.901c0-44.128,35.773-79.901,79.902-79.901
			c44.129,0,79.9,35.773,79.9,79.901C179.906,144.146,144.135,179.919,100.006,179.919z M106.719,40.156
			C73.75,40.156,60.156,54.688,60.156,80h19.219c0,0,2.344-19.844,20.469-19.844s19.063,13.594,14.688,20.313
			S89.844,99.063,89.844,106.25s0,13.906,0,13.906h19.688c0,0-0.469-11.25,2.344-14.219c5.188-5.476,27.813-16.094,27.813-32.813
			S123.125,40.156,106.719,40.156z"/>
	</g>
</g>
</svg>
