<?xml version="1.0" encoding="utf-8"?>
<!-- Generator: Adobe Illustrator 16.0.0, SVG Export Plug-In . SVG Version: 6.00 Build 0)  -->
<!DOCTYPE svg PUBLIC "-//W3C//DTD SVG 1.1//EN" "http://www.w3.org/Graphics/SVG/1.1/DTD/svg11.dtd">
<svg version="1.1" xmlns="http://www.w3.org/2000/svg" xmlns:xlink="http://www.w3.org/1999/xlink" x="0px" y="0px" width="200px"
	 height="200px" viewBox="0 0 200 200" enable-background="new 0 0 200 200" xml:space="preserve">
<g id="形状_1_1_" enable-background="new    ">
	<g id="形状_1">
		<g>
			<circle fill-rule="evenodd" clip-rule="evenodd" fill="#EAA617" cx="100" cy="100" r="100"/>
		</g>
	</g>
</g>
<g id="形状_1_副本_1_" enable-background="new    ">
	<g id="形状_1_副本">
		<g>
			<circle fill-rule="evenodd" clip-rule="evenodd" fill="#FFC54A" cx="100" cy="100" r="92.113"/>
		</g>
	</g>
</g>
<g id="形状_2_1_" enable-background="new    ">
	<g id="形状_2">
		<g>
			<path fill-rule="evenodd" clip-rule="evenodd" fill="#9F700E" d="M64,56c-4.418,0-8,3.582-8,8v12c0,4.418,3.582,8,8,8
				s8-3.582,8-8V64C72,59.582,68.418,56,64,56z M136.025,56c-4.418,0-8,3.582-8,8v12c0,4.418,3.582,8,8,8s8-3.582,8-8V64
				C144.025,59.582,140.443,56,136.025,56z"/>
		</g>
	</g>
</g>
<g id="颜色填充_1_1_" enable-background="new    ">
	<g id="颜色填充_1">
		<g>
			<path fill-rule="evenodd" clip-rule="evenodd" fill="#9F700E" d="M169.534,119.704l-11.054-11.568
				c-2.289-2.396-6.088-2.481-8.483-0.192s-2.481,6.087-0.192,8.483l2.783,2.913c-0.119,0.213-0.231,0.434-0.338,0.66
				c-3.75,8-18.875,28-52.25,28c-34.625,0-47.25-20.25-52-28c-0.052-0.086-0.11-0.167-0.165-0.25l2.162-2.438
				c2.199-2.479,1.973-6.271-0.506-8.47s-6.271-1.973-8.47,0.506l-10.619,11.968c-2.199,2.479-1.973,6.271,0.506,8.471
				c2.479,2.199,6.271,1.973,8.47-0.506l0.221-0.249C51.193,149.901,81.613,160,100,160c23.019,0,50.699-12.729,60.755-32.113
				l0.103,0.107c2.29,2.396,6.088,2.482,8.483,0.193C171.736,125.897,171.823,122.1,169.534,119.704z"/>
		</g>
	</g>
</g>
</svg>
