<?xml version="1.0" encoding="utf-8"?>
<!-- Generator: Adobe Illustrator 16.0.0, SVG Export Plug-In . SVG Version: 6.00 Build 0)  -->
<!DOCTYPE svg PUBLIC "-//W3C//DTD SVG 1.1//EN" "http://www.w3.org/Graphics/SVG/1.1/DTD/svg11.dtd">
<svg version="1.1" id="_x31__1_" xmlns="http://www.w3.org/2000/svg" xmlns:xlink="http://www.w3.org/1999/xlink" x="0px" y="0px"
	 width="200px" height="187px" viewBox="0 0 200 187" enable-background="new 0 0 200 187" xml:space="preserve">
<g id="_x31_">
	<g>
		<path fill-rule="evenodd" clip-rule="evenodd" fill="#FFBA00" d="M192.627,69.862l-58.188-6.699
			c-3.707-0.424-7.982-3.569-9.5-6.981L101.117,2.575c-1.516-3.41-4.026-3.422-5.578-0.024L71.201,55.923
			c-1.55,3.398-5.857,6.501-9.565,6.892L3.383,68.947c-3.713,0.39-4.499,2.776-1.75,5.306l43.15,39.678
			c2.75,2.529,4.363,7.589,3.586,11.244l-12.178,57.398c-0.777,3.657,1.247,5.142,4.497,3.306l51.004-28.849
			c3.25-1.836,8.551-1.813,11.781,0.055l50.729,29.344c3.229,1.868,5.269,0.396,4.525-3.265l-11.627-57.511
			c-0.742-3.663,0.922-8.706,3.693-11.211l43.533-39.257C197.1,72.681,196.334,70.285,192.627,69.862z"/>
	</g>
</g>
</svg>
