<?xml version="1.0" encoding="utf-8"?>
<!-- Generator: Adobe Illustrator 16.0.0, SVG Export Plug-In . SVG Version: 6.00 Build 0)  -->
<!DOCTYPE svg PUBLIC "-//W3C//DTD SVG 1.1//EN" "http://www.w3.org/Graphics/SVG/1.1/DTD/svg11.dtd">
<svg version="1.1" id="帐篷2_1_" xmlns="http://www.w3.org/2000/svg" xmlns:xlink="http://www.w3.org/1999/xlink" x="0px" y="0px"
	 width="200px" height="170px" viewBox="0 0 200 170" enable-background="new 0 0 200 170" xml:space="preserve">
<g id="椭圆_25" opacity="0.051">
	<g>
		<path fill-rule="evenodd" clip-rule="evenodd" d="M200,135.322c-10.763-9.401-47.799-12.979-97.141-13.331
			c-59.1-0.423-100.868,3.958-101.17,18.3c-0.302,14.343,39.818,22.238,98.918,21.811c49.846-0.361,88.361-4.457,99.393-14.335
			V135.322z"/>
	</g>
</g>
<g id="形状_169">
	<g>
		<path fill-rule="evenodd" clip-rule="evenodd" fill="#F4443F" d="M114.25,6.866c0,0-66.336,105.962-104.04,135.289
			c0.162,0.034,147.477-3.729,181.705,3.328C186.841,144.436,122.154,38.049,114.25,6.866z"/>
	</g>
</g>
<g id="颜色填充_1">
	<g>
		<path fill-rule="evenodd" clip-rule="evenodd" fill="#F66965" d="M52.5,97.085c-16.073,21.669-41.136,44.539-41.136,44.539h63.863
			L114.091,8.007C114.091,8.007,69.95,73.559,52.5,97.085z"/>
	</g>
</g>
<g id="形状_172">
	<g>
		<path fill-rule="evenodd" clip-rule="evenodd" fill="#A9602E" d="M104.799,92.529c-30.105,2.107-29.587,48.98-29.587,48.98
			l61.003,0.087C136.215,141.597,135.925,90.351,104.799,92.529z"/>
	</g>
</g>
<g id="颜色填充_2">
	<g>
		<path fill-rule="evenodd" clip-rule="evenodd" fill="#E8413C" d="M148.182,79.133C137.5,59.817,113.637,8.007,113.637,8.007
			l23.637,133.617c0,0,35.453-0.455,52.271,2.499C189.545,144.123,158.863,98.448,148.182,79.133z"/>
	</g>
</g>
<g id="矩形_27">
	<g>
		
			<rect x="6.986" y="132.409" transform="matrix(0.973 -0.2307 0.2307 0.973 -32.0937 5.8829)" fill-rule="evenodd" clip-rule="evenodd" fill="#A9602E" width="4.255" height="15.584"/>
	</g>
</g>
<g id="矩形_27_副本">
	<g>
		
			<rect x="184.059" y="142.071" transform="matrix(0.1563 -0.9877 0.9877 0.1563 19.4405 311.1559)" fill-rule="evenodd" clip-rule="evenodd" fill="#A9602E" width="15.584" height="4.255"/>
	</g>
</g>
</svg>
