<?xml version="1.0" encoding="utf-8"?>
<!-- Generator: Adobe Illustrator 16.0.0, SVG Export Plug-In . SVG Version: 6.00 Build 0)  -->
<!DOCTYPE svg PUBLIC "-//W3C//DTD SVG 1.1//EN" "http://www.w3.org/Graphics/SVG/1.1/DTD/svg11.dtd">
<svg version="1.1" xmlns="http://www.w3.org/2000/svg" xmlns:xlink="http://www.w3.org/1999/xlink" x="0px" y="0px" width="170px"
	 height="200px" viewBox="0 0 170 200" enable-background="new 0 0 170 200" xml:space="preserve">
<g id="lightning_1_" enable-background="new    ">
	<g id="lightning">
		<g>
			<polygon fill-rule="evenodd" clip-rule="evenodd" fill="#FFAD10" points="114.565,103.704 77.045,103.704 63.035,148.148 
				92.392,148.148 96.065,140.784 66.857,200 67.899,200 124.141,140.741 96.087,140.741 			"/>
		</g>
	</g>
</g>
<g id="Cloud_1_" enable-background="new    ">
	<g id="Cloud">
		<g>
			<path fill-rule="evenodd" clip-rule="evenodd" fill="#858585" d="M142.793,47.396c0.02-0.529,0.04-1.057,0.04-1.591
				c0-23.622-19.089-42.772-42.637-42.772c-16.292,0-30.445,9.17-37.623,22.644c-2.237-0.8-4.635-1.258-7.146-1.258
				c-11.774,0-21.318,9.576-21.318,21.387c0,0.217,0.026,0.428,0.032,0.644C15.104,47.541,0,63.369,0,82.74
				c0,20.079,16.226,36.356,36.241,36.356h98.064c20.016,0,36.241-16.277,36.241-36.356
				C170.547,65.595,158.712,51.23,142.793,47.396z"/>
		</g>
	</g>
</g>
</svg>
