<?xml version="1.0" encoding="utf-8"?>
<!-- Generator: Adobe Illustrator 16.0.0, SVG Export Plug-In . SVG Version: 6.00 Build 0)  -->
<!DOCTYPE svg PUBLIC "-//W3C//DTD SVG 1.1//EN" "http://www.w3.org/Graphics/SVG/1.1/DTD/svg11.dtd">
<svg version="1.1" id="tree_2_1_" xmlns="http://www.w3.org/2000/svg" xmlns:xlink="http://www.w3.org/1999/xlink" x="0px" y="0px"
	 width="188px" height="200px" viewBox="0 0 188 200" enable-background="new 0 0 188 200" xml:space="preserve">
<g id="形状_154">
	<g>
		<path fill-rule="evenodd" clip-rule="evenodd" fill="#78E48E" d="M130.51,31.095c-21.73,3.104-35.703,23.763-35.703,23.763
			l1.803,15.302c8.25-18.008,21.44-26.922,39.886-31.541c18.767-4.701,46.573,9.32,46.573,9.32
			C171.014,35.714,152.239,27.99,130.51,31.095z"/>
	</g>
</g>
<g id="形状_151">
	<g>
		<path fill-rule="evenodd" clip-rule="evenodd" fill="#2DCC94" d="M86.956,72.125c0,0,2.694-1.248,1.466-4.524L86.956,72.125z
			 M55.319,35.022c-23.884-3.55-45.451,9.913-53.302,27.181c0,0,28.094-29.367,61.342-12.819
			c18.042,8.979,23.76,14.741,25.063,18.217l2.884-8.897C91.306,58.704,79.204,38.571,55.319,35.022z"/>
	</g>
</g>
<g id="形状_152">
	<g>
		<path fill-rule="evenodd" clip-rule="evenodd" fill="#78E48E" d="M86.158,22.971C78.837,11.547,64.081,11.387,55.78,12.345
			c24.091-1.028,30.651,39.434,30.651,39.434l9.917,8.207C96.348,59.986,96.678,39.385,86.158,22.971z M55.78,12.345
			c-1.899,0.081-3.904,0.412-6.027,1.049C49.753,13.395,52.153,12.764,55.78,12.345z"/>
	</g>
</g>
<g id="形状_153">
	<g>
		<path fill-rule="evenodd" clip-rule="evenodd" fill="#2DCC94" d="M91.39,55.883l12.736,8.293c0,0-6.804-17.995,5.104-38.81
			c11.907-20.815,41.855-21.882,41.855-21.882C90.199-8.53,91.39,55.883,91.39,55.883z"/>
	</g>
</g>
<g id="形状_153_副本">
	<g>
		<path fill-rule="evenodd" clip-rule="evenodd" fill="#2DCC94" d="M93.212,63.121l1.922,11.732c0,0,29.771-17.051,48.004-12.629
			c28.352,6.876,41.188,25.711,41.188,25.711C156.295,25.854,93.212,63.121,93.212,63.121z"/>
	</g>
</g>
<g id="形状_150">
	<g>
		<path fill-rule="evenodd" clip-rule="evenodd" fill="#78E48E" d="M30.593,126.318c-0.476-0.421-0.934-0.846-1.377-1.274
			C30.006,125.937,30.593,126.318,30.593,126.318z M87.291,60.841c0,0-17.993-11.841-33.586-9.491
			c-15.354,2.313-53.01,46.111-24.49,73.694c-2.732-3.085-7.917-12.319,0.098-33.406c6.569-17.283,33.381-39.953,57.296-26.865
			C110.412,77.8,87.291,60.841,87.291,60.841z"/>
	</g>
</g>
<g id="形状_149">
	<g>
		<polygon fill-rule="evenodd" clip-rule="evenodd" fill="#A48D80" points="100.889,65.115 85.991,64.089 85.969,197.833 
			100.929,196.677 		"/>
	</g>
</g>
<g id="椭圆_23_副本">
	<g>
		<path fill-rule="evenodd" clip-rule="evenodd" fill="#7F6353" d="M106.044,56.61c-3.989-2.148-8.962-0.656-11.106,3.333
			c-2.145,3.989-0.65,8.965,3.339,11.113c3.988,2.148,8.961,0.656,11.105-3.333S110.033,58.759,106.044,56.61z"/>
	</g>
</g>
<g id="椭圆_23">
	<g>
		<path fill-rule="evenodd" clip-rule="evenodd" fill="#907668" d="M96.002,52.635c-5.523-2.975-12.408-0.908-15.378,4.615
			s-0.9,12.413,4.623,15.388s12.407,0.908,15.378-4.615C103.594,62.499,101.525,55.609,96.002,52.635z"/>
	</g>
</g>
</svg>
