<?xml version="1.0" encoding="utf-8"?>
<!-- Generator: Adobe Illustrator 16.0.0, SVG Export Plug-In . SVG Version: 6.00 Build 0)  -->
<!DOCTYPE svg PUBLIC "-//W3C//DTD SVG 1.1//EN" "http://www.w3.org/Graphics/SVG/1.1/DTD/svg11.dtd">
<svg version="1.1" id="形状_469_1_" xmlns="http://www.w3.org/2000/svg" xmlns:xlink="http://www.w3.org/1999/xlink" x="0px"
	 y="0px" width="200px" height="176px" viewBox="0 0 200 176" enable-background="new 0 0 200 176" xml:space="preserve">
<g id="形状_469">
	<g>
		<path fill-rule="evenodd" clip-rule="evenodd" fill="#FF6600" d="M99.979,4.013L-0.105,175.939h200.167L99.979,4.013z
			 M99.929,46.86l59.225,110.192H40.705L99.929,46.86z M99.924,132.306c-3.915,0-7.088,3.181-7.088,7.104
			c0,3.923,3.173,7.104,7.088,7.104c3.914,0,7.088-3.181,7.088-7.104C107.012,135.486,103.838,132.306,99.924,132.306z
			 M104.421,124.819c0.457-3.819,4.932-35.903,4.878-39.417c-0.152-9.93-19.512-9.319-19.055-0.61
			c0.192,3.661,4.42,36.36,5.183,39.875C96.189,128.181,103.963,128.639,104.421,124.819z"/>
	</g>
</g>
</svg>
